# Blender 3.6.4
# www.blender.org
mtllib pistol.mtl
o Cube.002
v -6.422588 6.627872 -0.891419
v -6.422588 8.192956 -1.279308
v -6.422588 6.627872 0.891419
v -6.422588 8.192956 1.279308
v -2.712349 8.192956 -1.279308
v -2.712349 6.627872 0.891419
v -2.712349 6.627872 -0.891419
v -2.712349 8.192956 1.279308
v -4.567469 6.627872 -0.891419
v -4.567469 8.192956 1.279308
v -4.567469 8.192956 -1.279308
v -4.567469 6.627872 0.891419
v -0.857230 8.192956 -1.279308
v -0.857230 6.627872 0.891419
v -0.857230 6.627872 -0.891419
v -0.857230 8.192956 1.279308
v -10.132827 6.627872 -0.891419
v -10.132827 8.192956 1.279308
v -10.132827 8.192956 -1.279308
v -10.132827 6.627872 0.891419
v -8.277708 8.192956 -1.279308
v -8.277708 6.627872 0.891419
v -8.277707 6.627872 -0.891419
v -8.277707 8.192956 1.279308
v -11.987947 6.627872 -0.891419
v -11.987947 8.192956 1.279308
v -11.987947 8.192956 -1.279308
v -11.987947 6.627872 0.891419
v -13.651822 6.627872 0.891419
v -13.843066 6.627872 0.643962
v -13.843066 8.192956 1.031852
v -13.651822 8.192956 1.279308
v -13.843066 6.627872 -0.643962
v -13.651822 6.627872 -0.891419
v -13.651822 8.192956 -1.279308
v -13.843066 8.192956 -1.031852
v 0.997890 6.627872 0.450470
v 0.657106 6.627872 0.891419
v 0.657106 8.192956 0.998882
v 0.997890 8.192956 0.838359
v 0.657106 6.627872 -0.891419
v 0.997890 6.627872 -0.450470
v 0.997890 8.192956 -0.838359
v 0.657106 8.192956 -0.998882
v -1.784790 6.627872 -0.891419
v -1.784789 8.192956 1.279308
v -1.784790 8.192956 -1.279308
v -1.784790 6.627872 0.891419
v -2.248569 6.627872 -0.891419
v -2.248569 8.192956 1.279308
v -2.248569 8.192956 -1.279308
v -2.248569 6.627872 0.891419
v -6.422588 7.410414 1.085363
v -6.422588 7.410414 -1.085363
v -2.712349 7.410414 1.085363
v -2.712349 7.410414 -1.085363
v -4.567469 7.410414 -1.085363
v -4.567469 7.410414 1.085363
v -0.857230 7.410414 1.085363
v -0.857230 7.410414 -1.085363
v -10.132827 7.410414 -1.085363
v -10.132827 7.410414 1.085363
v -8.277707 7.410414 1.085363
v -8.277707 7.410414 -1.085363
v -11.987947 7.410414 -1.085363
v -11.987947 7.410414 1.085363
v -13.651822 7.410414 1.085363
v -13.843066 7.410414 0.837907
v -13.651822 7.410414 -1.085363
v -13.843066 7.410414 -0.837907
v 0.997890 7.410414 -0.644415
v 0.657106 7.410414 -0.945150
v 0.657106 7.410414 0.945150
v 0.997890 7.410414 0.644415
v -1.784790 7.410414 -1.085363
v -2.248569 7.410414 -1.085363
v -2.248569 7.410414 1.085363
v -6.422588 7.019143 0.988391
v -6.422588 7.019143 -0.988391
v -2.712349 7.019143 0.988391
v -2.712349 7.019143 -0.988391
v -4.567469 7.019143 -0.988391
v -4.567469 7.019143 0.988391
v -0.857230 7.019143 0.988391
v -0.857230 7.019143 -0.988391
v -10.132827 7.019143 -0.988391
v -10.132827 7.019143 0.988391
v -8.277707 7.019143 0.988391
v -8.277707 7.019143 -0.988391
v -11.987947 7.019143 -0.988391
v -11.987947 7.019143 0.988391
v -13.843066 7.019143 0.740935
v -13.651822 7.019143 -0.988391
v 0.997890 7.019143 -0.547442
v 0.657106 7.019143 0.918284
v -1.784790 7.019143 -0.988391
v -2.248569 7.019143 -0.988391
v -2.248569 7.019143 0.988391
v -13.651822 7.019143 0.988391
v -13.843066 7.019143 -0.740935
v 0.657106 7.019143 -0.918284
v 0.997890 7.019143 0.547442
v -1.863938 7.100380 2.074048
v -2.248569 7.185194 1.994097
v -2.169421 7.100380 2.074048
v -1.863938 6.831583 2.007430
v -2.248569 6.793923 1.897124
v -2.169421 6.831583 2.007430
v -1.784790 7.296687 1.191246
v -1.784790 7.410414 1.085363
v -1.784790 7.070260 1.135128
v -1.784790 7.019143 0.988391
v -1.784790 7.134076 1.847360
v -1.873488 7.145226 2.031774
v -1.784790 6.907650 1.791242
v -1.873488 6.811787 1.949448
v 1.798595 0.537853 -0.802591
v 1.798595 0.537853 0.802591
v -1.869723 0.537853 -0.802591
v -1.869723 0.537853 0.802591
v 0.979499 5.413278 0.802591
v -3.007485 5.415741 0.785937
v 0.979499 5.413278 -0.802591
v -3.007485 5.415741 -0.784093
v -1.001105 -1.036760 -0.446725
v -0.832257 -1.152598 -0.371380
v -0.832257 -1.152598 0.371380
v -1.001105 -1.036760 0.446725
v 1.001105 -1.036760 -0.446725
v 0.832257 -1.152598 -0.371380
v 0.832257 -1.152598 0.371380
v 1.001105 -1.036760 0.446725
v 1.001105 -1.026141 -0.446725
v 1.077312 -1.000000 -0.432640
v 1.077312 -1.000000 0.432640
v 1.001105 -1.000000 0.494817
v -1.077312 -1.000000 -0.432640
v -1.001105 -1.000000 -0.494817
v -1.001105 -1.026141 0.446725
v -1.077312 -1.000000 0.432640
v -1.381407 -1.000000 -0.568337
v -1.457614 -0.973860 -0.650434
v -1.381407 -1.000000 0.568337
v -1.457614 -0.973860 0.650434
v 1.381407 -1.000000 -0.568337
v 1.457614 -0.973860 -0.650434
v 1.381407 -1.000000 0.568337
v 1.457614 -0.973860 0.650434
v -2.168005 2.975565 0.802591
v -2.168005 2.975565 -0.802591
v 1.205741 2.975565 -0.802591
v 1.205741 2.975565 0.802591
v -1.881678 1.756709 -0.802591
v 1.671236 1.756709 0.802591
v -1.881678 1.756709 0.802591
v 1.671236 1.756709 -0.802591
v -5.148385 4.068641 0.802591
v 0.837620 4.194422 -0.802591
v -5.148385 4.068641 -0.802591
v 0.837620 4.194422 0.802591
v -2.465974 3.584994 -0.802591
v 0.979500 3.584994 0.802591
v -2.465974 3.584994 0.802591
v 0.979500 3.584994 -0.802591
v -2.723001 4.803850 0.802591
v 0.837620 4.803850 -0.802591
v -2.723001 4.803850 -0.802591
v 0.837620 4.803850 0.802591
v -1.998919 1.147281 -0.802591
v 1.790453 1.147281 0.802591
v -1.998919 1.147281 0.802591
v 1.790453 1.147281 -0.802591
v -2.117552 2.366137 0.802591
v 1.456326 2.366137 -0.802591
v -2.117552 2.366137 -0.802591
v 1.456326 2.366137 0.802591
v -2.933404 5.108564 0.802591
v 0.894263 5.108564 -0.802591
v -2.933404 5.108564 -0.802591
v 0.894263 5.108564 0.802591
v -2.719395 4.499136 -0.802591
v 0.817071 4.499136 0.802591
v -2.719395 4.499136 0.802591
v 0.817071 4.499136 -0.802591
v -2.751197 3.889708 0.802591
v 0.894263 3.889708 -0.802591
v -2.751197 3.889708 -0.802591
v 0.894263 3.889708 0.802591
v -2.226108 3.280280 -0.802591
v 1.085826 3.280280 0.802591
v -2.226108 3.280280 0.802591
v 1.085826 3.280280 -0.802591
v -2.214385 2.670851 0.802591
v 1.331742 2.670851 -0.802591
v -2.214385 2.670851 -0.802591
v 1.331742 2.670851 0.802591
v -1.946882 2.061423 -0.802591
v 1.571992 2.061423 0.802591
v -1.946882 2.061423 0.802591
v 1.571992 2.061423 -0.802591
v -1.955917 1.451995 0.802591
v 1.746557 1.451995 -0.802591
v -1.955917 1.451995 -0.802591
v 1.746557 1.451995 0.802591
v -1.956011 0.842947 -0.802591
v 1.798595 0.842947 0.802591
v -1.956011 0.842947 0.802591
v 1.798595 0.842947 -0.802591
v -3.653220 4.042065 0.802591
v 0.865941 4.042065 -0.802591
v -3.653220 4.042065 -0.802591
v 0.865941 4.042065 0.802591
v -3.934083 4.283889 -0.802591
v 0.827345 4.346779 0.802591
v -3.934083 4.283889 0.802591
v 0.827345 4.346779 -0.802591
v -4.541138 4.176265 -0.802591
v 0.832482 4.270600 0.802591
v -4.541138 4.176265 0.802591
v 0.832482 4.270600 -0.802591
v -5.602521 4.186027 -0.817437
v -6.209769 4.078403 -0.817437
v -6.209769 4.078403 0.787746
v -5.602521 4.186027 0.787746
v -6.129468 4.232762 -0.861569
v -6.736716 4.125138 -0.861569
v -6.736716 4.125138 0.743614
v -6.129468 4.232762 0.743614
v -6.741941 4.500132 -0.763147
v -7.349190 4.407076 -0.796362
v -7.349190 4.377120 0.807948
v -6.741941 4.500132 0.842036
v -6.761694 5.534032 -0.821227
v -7.210909 5.848166 -0.777188
v -7.210909 5.818522 0.825091
v -6.761694 5.534032 0.783955
v -6.470740 6.400588 -0.760498
v -6.919955 6.700862 -0.760498
v -6.919955 6.700862 0.844685
v -6.470740 6.400588 0.844685
v 0.979499 6.053436 0.802591
v -2.856024 6.049199 0.796485
v 0.979499 6.053436 -0.802591
v -2.856024 6.049199 -0.795809
v -2.300067 6.400315 -0.760498
v -2.749281 6.700588 -0.760498
v -2.749281 6.700588 0.844685
v -2.300067 6.400315 0.844685
v 0.979499 6.654530 0.455068
v -2.846061 6.639830 0.802591
v 0.979499 6.654530 -0.455068
v -2.846061 6.639830 -0.802591
v 0.979499 6.674195 0.455068
v -2.846061 6.674513 0.802591
v 0.979499 6.674195 -0.455068
v -2.846061 6.674513 -0.802591
v 0.979499 6.692611 0.264529
v -2.846061 6.706993 0.802591
v 0.979499 6.692611 -0.264529
v -2.846061 6.706993 -0.802591
v -4.834619 6.700726 -0.760498
v -4.385403 6.400451 -0.760498
v -4.385403 6.400451 0.844684
v -4.834619 6.700726 0.844685
v -3.791950 6.700657 -0.760498
v -3.791950 6.700657 0.844685
v -3.361630 6.378176 -0.740120
v -3.361630 6.378176 0.824307
v -3.869728 6.378209 -0.740120
v -3.869728 6.378209 0.824307
v -4.313284 6.700691 -0.760498
v -4.313284 6.700691 0.844685
v -3.270616 6.700623 -0.760498
v -3.270616 6.700623 0.844685
v -2.821401 6.400350 -0.760498
v -2.821401 6.400350 0.844685
v -3.694129 5.699371 -0.456599
v -3.694129 5.699371 0.540786
v -4.018062 5.699392 -0.456599
v -4.018062 5.699392 0.540786
v -4.155822 5.352075 -0.456599
v -4.155822 5.352075 0.540786
v -4.479754 5.352096 -0.456599
v -4.479754 5.352096 0.540786
v -4.411177 5.097288 -0.547994
v -4.237695 5.214141 -0.512588
v -4.237695 5.214141 0.596774
v -4.411177 5.097288 0.632181
v -4.572714 5.129012 -0.504317
v -4.598460 5.213881 -0.513091
v -4.598460 5.213881 0.597278
v -4.572714 5.129012 0.588504
v 1.421685 0.465528 -0.816545
v 1.421685 0.465528 0.820475
v -1.477908 0.465528 -0.816545
v -1.477908 0.465528 0.820475
v 0.455617 4.685359 0.849791
v -2.287091 4.687490 0.833791
v 0.455617 4.685359 -0.845861
v -2.287095 4.687490 -0.883506
v -0.791315 -0.897346 -0.502519
v -0.657851 -0.997609 -0.417432
v -0.657851 -0.997609 0.421362
v -0.791315 -0.897346 0.506449
v 0.791316 -0.897346 -0.502519
v 0.657851 -0.997609 -0.417432
v 0.657851 -0.997609 0.421362
v 0.791316 -0.897346 0.506449
v 0.791316 -0.888156 -0.502519
v 0.851552 -0.865531 -0.486612
v 0.851552 -0.865531 0.490542
v 0.791316 -0.865531 0.560758
v -0.851553 -0.865531 -0.486612
v -0.791315 -0.865531 -0.556828
v -0.791315 -0.888156 0.506449
v -0.851553 -0.865531 0.490542
v -1.091923 -0.865531 -0.639854
v -1.152159 -0.842905 -0.732566
v -1.091923 -0.865531 0.643784
v -1.152159 -0.842905 0.736496
v 1.091923 -0.865531 -0.639854
v 1.152159 -0.842905 -0.732566
v 1.091923 -0.865531 0.643784
v 1.152159 -0.842905 0.736496
v -1.922276 2.575443 0.811564
v -1.922276 2.575443 -0.807634
v 0.953069 2.575443 -0.807634
v 0.953069 2.575443 0.811564
v -1.604099 1.520485 -0.800347
v 1.321015 1.520485 0.804277
v -1.604099 1.520485 0.804277
v 1.321015 1.520485 -0.800347
v -2.302755 3.521534 0.908326
v 0.623678 3.630401 -0.904396
v -2.302755 3.521534 -0.904396
v 0.623678 3.630401 0.908326
v -1.949210 3.102922 -0.813241
v 0.774238 3.102922 0.817171
v -1.949210 3.102922 0.817171
v 0.774238 3.102922 -0.813241
v -2.513126 4.157880 0.859148
v 0.454773 4.157880 -0.848086
v -2.513126 4.157880 -0.855218
v 0.454773 4.157880 0.852016
v -1.698522 0.993007 -0.790412
v 1.415249 0.993007 0.794342
v -1.698522 0.993007 0.794342
v 1.415249 0.993007 -0.790412
v -1.673802 2.047964 0.831521
v 1.151142 2.047964 -0.827591
v -1.673802 2.047964 -0.827591
v 1.151142 2.047964 0.831521
v -2.366225 4.421619 0.886958
v 0.421677 4.421619 -0.883028
v -2.366225 4.421619 -0.883028
v 0.421677 4.421619 0.886958
v -2.563768 3.894141 -0.831894
v 0.529919 3.894141 0.833151
v -2.563768 3.894141 0.835824
v 0.529919 3.894141 -0.829221
v -2.165465 3.366662 0.908326
v 0.706270 3.366662 -0.904396
v -2.165465 3.366662 -0.904396
v 0.706270 3.366662 0.908326
v -1.801847 2.839182 -0.904396
v 0.858283 2.839182 0.908326
v -1.801847 2.839182 0.908326
v 0.858283 2.839182 -0.904396
v -1.793564 2.311704 0.908326
v 1.052665 2.311704 -0.904396
v -1.793564 2.311704 -0.904396
v 1.052665 2.311704 0.908326
v -1.557273 1.784225 -0.904396
v 1.242569 1.784225 0.908326
v -1.557273 1.784225 0.908326
v 1.242569 1.784225 -0.904396
v -1.731301 1.256746 0.908326
v 1.380553 1.256746 -0.904396
v -1.731301 1.256746 -0.904396
v 1.380553 1.256746 0.908326
v -1.564590 0.729597 -0.904396
v 1.421685 0.729597 0.908326
v -1.564590 0.729597 0.908326
v 1.421685 0.729597 -0.904396
v -2.276952 3.498531 0.843658
v 0.671558 3.498531 -0.839728
v -2.276952 3.498531 -0.839728
v 0.671558 3.498531 0.843658
v -2.424952 3.707838 -0.904396
v 0.579980 3.762271 0.908326
v -2.424952 3.707838 0.908326
v 0.579980 3.762271 -0.904396
v -2.374127 3.614686 -0.904396
v 0.602846 3.696336 0.908326
v -2.374127 3.614686 0.908326
v 0.602846 3.696336 -0.904396
v 0.571951 5.239435 0.863782
v -2.113763 5.235768 0.856886
v 0.571951 5.239435 -0.859852
v -2.113763 5.235768 -0.896736
v -1.723999 5.539670 -0.856860
v -2.084568 5.799565 -0.856860
v -2.084754 5.799565 0.953662
v -1.724194 5.539670 0.949327
v 0.735997 5.746976 0.904277
v -2.151881 5.746976 0.902916
v 0.735997 5.746976 -0.900347
v -2.151881 5.746976 -0.898986
v 0.742904 5.776996 0.905979
v -2.156421 5.776996 0.904849
v 0.742904 5.776996 -0.902049
v -2.156421 5.776996 -0.900919
v 0.748851 5.805109 0.907185
v -2.160751 5.805109 0.906320
v 0.748851 5.805109 -0.903255
v -2.160751 5.805109 -0.902390
v -2.105288 5.539700 -0.856860
v -2.105537 5.539700 0.931679
v 0.750911 5.815478 0.907527
v -2.162363 5.815478 0.906771
v 0.750911 5.815478 -0.903597
v -2.162363 5.815478 -0.902841
v 0.283953 6.049276 0.595757
v 0.587374 5.954159 0.790634
v -1.735188 6.049276 0.595757
v -2.005006 5.954159 0.790634
v 0.283953 6.049276 -0.591827
v 0.587374 5.954159 -0.786704
v -1.735159 6.049276 -0.591827
v -2.005006 5.954159 -0.786704
v -14.261868 8.693271 -0.425435
v -13.272446 8.693271 -0.539184
v -14.261868 8.618949 -0.418115
v -13.272446 8.596758 -0.529679
v -14.261868 8.547483 -0.396436
v -13.272446 8.503953 -0.501527
v -14.261868 8.481620 -0.361232
v -13.272446 8.418425 -0.455810
v -14.261868 8.423890 -0.313854
v -13.272446 8.343457 -0.394287
v -14.261868 8.376513 -0.256125
v -13.272446 8.281934 -0.319320
v -14.261868 8.341308 -0.190261
v -13.272446 8.236217 -0.233791
v -14.261868 8.319629 -0.118795
v -13.272446 8.208066 -0.140987
v -14.261868 8.312309 -0.044473
v -13.272446 8.198560 -0.044473
v -14.261868 8.319629 0.029849
v -13.272446 8.208066 0.052040
v -14.261868 8.341308 0.101314
v -13.272446 8.236217 0.144844
v -14.261868 8.376513 0.167178
v -13.272446 8.281934 0.230373
v -14.261868 8.423890 0.224907
v -13.272446 8.343457 0.305340
v -14.261868 8.481620 0.272285
v -13.272446 8.418425 0.366864
v -14.261868 8.547483 0.307489
v -13.272446 8.503953 0.412580
v -14.261868 8.618949 0.329168
v -13.272446 8.596758 0.440732
v -14.261868 8.693271 0.336488
v -13.272446 8.693271 0.450237
v -14.261868 8.767592 0.329168
v -13.272446 8.789784 0.440732
v -14.261868 8.839059 0.307489
v -13.272446 8.882588 0.412580
v -14.261868 8.904922 0.272285
v -13.272446 8.968118 0.366864
v -14.261868 8.962651 0.224907
v -13.272446 9.043084 0.305340
v -14.261868 9.010029 0.167178
v -13.272446 9.104608 0.230373
v -14.261868 9.045234 0.101314
v -13.272446 9.150324 0.144844
v -14.261868 9.066913 0.029849
v -13.272446 9.178476 0.052040
v -14.261868 9.074233 -0.044473
v -13.272446 9.187982 -0.044473
v -14.261868 9.066913 -0.118795
v -13.272446 9.178476 -0.140987
v -14.261868 9.045234 -0.190261
v -13.272446 9.150324 -0.233791
v -14.261868 9.010029 -0.256125
v -13.272446 9.104608 -0.319320
v -14.261868 8.962651 -0.313854
v -13.272446 9.043084 -0.394287
v -14.261868 8.904922 -0.361232
v -13.272446 8.968118 -0.455810
v -14.261868 8.839059 -0.396436
v -13.272446 8.882588 -0.501527
v -14.261868 8.767592 -0.418115
v -13.272446 8.789784 -0.529679
v -14.261868 8.693271 -0.539184
v -14.261868 8.596758 -0.529679
v -14.261868 8.503953 -0.501527
v -14.261868 8.418425 -0.455810
v -14.261868 8.343457 -0.394287
v -14.261868 8.281934 -0.319320
v -14.261868 8.236217 -0.233791
v -14.261868 8.208066 -0.140987
v -14.261868 8.198560 -0.044473
v -14.261868 8.208066 0.052040
v -14.261868 8.236217 0.144844
v -14.261868 8.281934 0.230373
v -14.261868 8.343457 0.305340
v -14.261868 8.418425 0.366864
v -14.261868 8.503953 0.412580
v -14.261868 8.596758 0.440732
v -14.261868 8.693271 0.450237
v -14.261868 8.789784 0.440732
v -14.261868 8.882588 0.412580
v -14.261868 8.968118 0.366864
v -14.261868 9.043084 0.305340
v -14.261868 9.104608 0.230373
v -14.261868 9.150324 0.144844
v -14.261868 9.178476 0.052040
v -14.261868 9.187982 -0.044473
v -14.261868 9.178476 -0.140987
v -14.261868 9.150324 -0.233791
v -14.261868 9.104608 -0.319320
v -14.261868 9.043084 -0.394287
v -14.261868 8.968118 -0.455810
v -14.261868 8.882588 -0.501527
v -14.261868 8.789784 -0.529679
v -13.625587 8.693271 -0.425435
v -13.625587 8.618949 -0.418115
v -13.625587 8.547483 -0.396436
v -13.625587 8.481620 -0.361232
v -13.625587 8.423890 -0.313854
v -13.625587 8.376513 -0.256125
v -13.625587 8.341308 -0.190261
v -13.625587 8.319629 -0.118795
v -13.625587 8.312309 -0.044473
v -13.625587 8.319629 0.029849
v -13.625587 8.341308 0.101314
v -13.625587 8.376513 0.167178
v -13.625587 8.423890 0.224907
v -13.625587 8.481620 0.272285
v -13.625587 8.547483 0.307489
v -13.625587 8.618949 0.329168
v -13.625587 8.693271 0.336488
v -13.625587 8.767593 0.329168
v -13.625587 8.839059 0.307489
v -13.625587 8.904922 0.272285
v -13.625587 8.962651 0.224907
v -13.625587 9.010029 0.167178
v -13.625587 9.045234 0.101314
v -13.625587 9.066913 0.029849
v -13.625587 9.074233 -0.044473
v -13.625587 9.066913 -0.118795
v -13.625587 9.045234 -0.190261
v -13.625587 9.010029 -0.256125
v -13.625587 8.962651 -0.313854
v -13.625587 8.904922 -0.361232
v -13.625587 8.839059 -0.396436
v -13.625587 8.767593 -0.418115
vn -0.0000 -0.2406 0.9706
vn 0.1359 -0.1549 0.9785
vn -0.0000 1.0000 -0.0000
vn 1.0000 -0.0000 -0.0000
vn -0.0000 -0.2406 -0.9706
vn -0.0000 -1.0000 -0.0000
vn 0.1359 -0.1549 -0.9785
vn -1.0000 -0.0000 -0.0000
vn -0.7823 -0.1498 0.6046
vn -0.7823 -0.1498 -0.6046
vn 0.7619 -0.1012 -0.6397
vn 0.7619 -0.1012 0.6397
vn 0.0345 0.9658 0.2570
vn 0.5557 -0.1299 0.8211
vn 0.5557 -0.1299 -0.8211
vn 0.0684 -0.1559 -0.9854
vn 0.0684 -0.1559 0.9854
vn 0.0229 -0.1563 0.9875
vn 0.0229 -0.1563 -0.9875
vn 0.9833 0.0436 -0.1764
vn 0.0347 -0.9740 -0.2237
vn 0.6975 -0.1120 0.7078
vn 0.6975 -0.1120 -0.7078
vn -0.0000 -0.9464 0.3231
vn -0.0000 0.6859 0.7277
vn -0.7780 -0.1511 0.6098
vn 0.8935 -0.1078 0.4360
vn 0.8514 -0.5195 -0.0721
vn 0.8517 0.4926 0.1786
vn -0.9721 -0.2344 -0.0000
vn 0.9755 -0.2200 -0.0000
vn -0.0000 -0.1001 -0.9950
vn -0.0000 -0.1001 0.9950
vn -0.9726 0.2325 -0.0000
vn 0.9630 -0.2694 -0.0000
vn -0.0024 0.0303 -0.9995
vn -0.0021 0.0272 0.9996
vn -0.9648 -0.2630 -0.0000
vn -0.0038 -0.7124 0.7018
vn -0.0031 -0.9770 -0.2132
vn 0.0031 -0.9770 0.2132
vn -0.5657 -0.8246 -0.0000
vn -0.0000 -0.5452 -0.8383
vn -0.0000 -0.5452 0.8383
vn 0.5657 -0.8246 -0.0000
vn -0.3245 -0.9459 -0.0000
vn 0.3245 -0.9459 -0.0000
vn -0.1734 -0.9847 -0.0142
vn 0.1734 -0.9847 0.0142
vn 0.0344 -0.9834 -0.1782
vn -0.0686 -0.9976 -0.0000
vn 0.0686 -0.9976 -0.0000
vn -0.0344 -0.9834 0.1782
vn 0.0038 -0.7124 -0.7018
vn -0.0000 -0.0000 1.0000
vn -0.0000 -0.0000 -1.0000
vn 0.9241 0.3821 -0.0000
vn -0.9886 0.1505 -0.0000
vn -0.9716 0.2367 -0.0000
vn 0.9708 0.2400 -0.0000
vn 0.9832 0.1828 -0.0000
vn -0.0178 -0.9998 -0.0000
vn -0.7858 -0.6185 -0.0000
vn 0.9442 0.3295 -0.0000
vn 0.9977 -0.0673 -0.0000
vn -0.9999 -0.0118 -0.0000
vn 0.9996 0.0267 -0.0000
vn -0.9902 -0.1396 -0.0000
vn -0.8725 -0.4887 -0.0000
vn 0.9349 0.3549 -0.0000
vn 0.9832 -0.1828 -0.0000
vn -0.8229 -0.5682 -0.0000
vn -0.1745 0.9847 -0.0000
vn 0.9977 0.0673 -0.0000
vn -0.7301 -0.6834 -0.0000
vn 0.9630 0.2694 -0.0000
vn 0.9305 0.3662 -0.0000
vn -0.9823 -0.1873 -0.0000
vn -0.9530 -0.3029 -0.0000
vn 0.9256 0.3784 -0.0000
vn 0.9508 0.3097 -0.0000
vn -0.9779 -0.2092 -0.0000
vn 0.9898 0.1426 -0.0000
vn -0.9902 0.1397 -0.0000
vn -0.9623 -0.2721 -0.0000
vn -0.1665 -0.9860 -0.0000
vn -0.1746 0.9846 -0.0000
vn 0.0133 -0.0748 -0.9971
vn -0.0532 0.3000 0.9525
vn 0.0092 1.0000 -0.0000
vn -0.0133 0.0748 0.9971
vn -0.0092 -1.0000 -0.0000
vn 0.4001 0.9165 -0.0000
vn 0.0532 -0.3000 -0.9525
vn 0.0883 0.9961 -0.0000
vn -0.0883 -0.9961 -0.0000
vn 0.0091 0.0161 0.9998
vn -0.4003 -0.9163 -0.0086
vn 0.0210 -0.2535 0.9671
vn -0.0155 0.2536 -0.9672
vn 0.0130 -0.0502 0.9987
vn -0.0134 -0.0151 -0.9998
vn 0.9998 0.0191 -0.0000
vn -0.9954 0.0955 0.0018
vn -0.0148 0.0500 -0.9986
vn 0.9480 -0.3183 -0.0000
vn -0.9481 0.3179 0.0029
vn -0.9999 0.0169 -0.0000
vn -0.0029 -0.0079 1.0000
vn -0.0032 -0.0088 -1.0000
vn 0.5557 0.8314 -0.0000
vn -0.0001 -1.0000 -0.0000
vn 0.0001 1.0000 -0.0000
vn 0.0421 0.2748 0.9606
vn 0.0421 0.2743 -0.9607
vn 0.0317 0.9656 0.2579
vn 0.0905 -0.0000 0.9959
vn 0.0905 -0.0000 -0.9959
vn 0.0038 1.0000 -0.0000
vn 0.0317 0.9656 -0.2579
vn -0.0000 -0.0631 0.9980
vn -0.0000 -0.3854 -0.9228
vn -0.0000 -0.0631 -0.9980
vn 0.0195 -0.0047 -0.9998
vn -0.0431 -0.9991 -0.0000
vn 0.0195 -0.0047 0.9998
vn -0.0180 -0.0580 0.9982
vn 0.0410 -0.9992 -0.0000
vn -0.0180 -0.0580 -0.9982
vn 0.8981 -0.4399 -0.0000
vn -0.9769 0.2135 -0.0000
vn -0.0000 -0.3854 0.9228
vn 0.0005 0.3769 0.9263
vn 0.6011 -0.7991 -0.0000
vn -0.6011 0.7991 -0.0000
vn 0.0005 0.3769 -0.9263
vn 0.8599 -0.5104 -0.0000
vn -0.7586 0.6515 -0.0000
vn 0.5587 -0.8294 -0.0000
vn -0.0702 0.1809 -0.9810
vn -0.0702 0.1809 0.9810
vn -0.9569 -0.2903 -0.0000
vn -0.1927 -0.9813 -0.0000
vn -0.9584 0.2853 -0.0000
vn 0.9794 -0.2018 -0.0000
vn -0.0000 -0.0641 -0.9979
vn -0.0000 -0.0641 0.9979
vn -0.9535 0.3014 -0.0000
vn 0.9918 -0.1276 -0.0000
vn 0.0068 0.0677 -0.9977
vn -0.0028 0.1687 0.9857
vn -0.9704 -0.2416 -0.0000
vn -0.0046 -0.7981 0.6026
vn -0.0034 -0.9863 -0.1650
vn 0.0034 -0.9863 0.1650
vn -0.6006 -0.7995 -0.0000
vn -0.0000 -0.6470 -0.7624
vn -0.0000 -0.6470 0.7624
vn 0.6006 -0.7995 -0.0000
vn -0.3516 -0.9361 -0.0000
vn 0.3516 -0.9361 -0.0000
vn -0.1893 -0.9819 -0.0109
vn 0.1893 -0.9819 0.0109
vn 0.0380 -0.9898 -0.1375
vn -0.0751 -0.9972 -0.0000
vn 0.0751 -0.9972 -0.0000
vn -0.0380 -0.9898 0.1375
vn 0.0046 -0.7981 -0.6026
vn -0.0000 0.3444 0.9388
vn -0.0000 0.3444 -0.9388
vn 0.9355 0.3533 -0.0000
vn -0.8987 -0.4386 -0.0000
vn -0.9007 0.4344 -0.0000
vn 0.9755 0.2202 -0.0000
vn -0.0000 0.3670 -0.9302
vn -0.0000 0.3670 0.9302
vn 0.0118 -0.6376 0.7703
vn 0.0118 -0.6376 -0.7703
vn 0.9400 0.3413 -0.0000
vn -0.6654 -0.7464 -0.0000
vn -0.8730 -0.4878 -0.0000
vn 0.9528 0.3036 -0.0000
vn -0.0000 0.3267 -0.9451
vn -0.0000 0.3267 0.9451
vn 0.0016 -0.0797 0.9968
vn 0.0016 -0.0797 -0.9968
vn 0.9617 0.2740 -0.0000
vn -0.9821 0.1886 -0.0000
vn -0.0000 0.3971 0.9178
vn -0.0000 0.3971 -0.9178
vn 0.9997 0.0244 -0.0000
vn -0.8914 -0.4532 -0.0000
vn -0.9147 -0.4041 -0.0000
vn 0.9448 0.3275 -0.0000
vn -0.0000 0.2796 -0.9601
vn -0.0000 0.2796 0.9601
vn 0.0012 -0.1184 0.9930
vn 0.0012 -0.1184 -0.9930
vn 0.9922 0.1245 -0.0000
vn -0.8736 0.4866 -0.0000
vn -0.8019 -0.5975 -0.0000
vn -0.0033 0.4194 -0.9078
vn -0.0033 0.4194 0.9078
vn -0.7733 -0.6341 -0.0000
vn 0.9684 0.2496 -0.0000
vn -0.0000 -0.3267 -0.9451
vn -0.0000 -0.3267 0.9451
vn -0.0000 -0.3444 0.9388
vn -0.0000 -0.3444 -0.9388
vn 0.9411 0.3382 -0.0000
vn -0.9097 0.4154 -0.0000
vn -0.9105 -0.4135 -0.0000
vn 0.9368 0.3498 -0.0000
vn -0.0000 -0.2796 -0.9601
vn -0.0000 -0.2796 0.9601
vn -0.0000 -0.3670 0.9302
vn -0.0000 -0.3670 -0.9302
vn 0.9585 0.2851 -0.0000
vn -0.9846 0.1748 -0.0000
vn -0.0000 -0.3967 0.9179
vn -0.0000 -0.3967 -0.9179
vn 0.9915 0.1304 -0.0000
vn -0.9924 -0.1233 -0.0000
vn -0.9501 -0.3119 -0.0000
vn -0.0000 -0.3157 -0.9489
vn -0.0000 -0.3157 0.9489
vn -0.7637 -0.6456 -0.0000
vn 0.9671 0.2546 -0.0000
vn -0.0000 0.4403 -0.8978
vn -0.0000 0.4403 0.8978
vn 0.9448 0.3277 -0.0000
vn -0.8778 -0.4790 -0.0000
vn 0.9535 0.3013 -0.0000
vn -0.7938 -0.6082 -0.0000
vn -0.9972 -0.0744 -0.0000
vn -0.0042 -0.0325 0.9995
vn 0.0137 -0.0283 -0.9995
vn 0.9787 -0.2055 -0.0000
vn 0.5847 0.8112 0.0001
vn -0.9888 -0.1495 -0.0000
vn -0.0014 -0.0845 0.9964
vn 0.0064 -0.0427 -0.9991
vn 0.9515 -0.3076 -0.0000
vn -0.0003 -0.0476 0.9989
vn -0.0004 -0.0604 0.9982
vn -0.0004 -0.0604 -0.9982
vn 0.9745 -0.2242 -0.0000
vn -0.9881 -0.1537 -0.0000
vn -0.0003 -0.0476 -0.9989
vn 0.9783 -0.2070 -0.0000
vn -0.9883 -0.1522 -0.0000
vn 0.9808 -0.1948 -0.0000
vn -0.0003 -0.0382 -0.9993
vn -0.6612 0.7502 -0.0000
vn -0.0001 0.6433 0.7656
vn -0.0001 0.6433 -0.7656
vn -0.0003 -0.0382 0.9993
vn -0.0000 0.8987 0.4386
vn 0.2991 0.9542 -0.0000
vn -0.3325 0.9431 -0.0000
vn -0.0000 0.8987 -0.4386
vn 0.6468 0.7627 -0.0000
vn -0.0000 -0.0980 -0.9952
vn -0.0000 -0.2903 -0.9569
vn -0.0000 -0.4714 -0.8819
vn -0.0000 -0.6344 -0.7730
vn -0.0000 -0.7730 -0.6344
vn -0.0000 -0.8819 -0.4714
vn -0.0000 -0.9569 -0.2903
vn -0.0000 -0.9952 -0.0980
vn -0.0000 -0.9952 0.0980
vn -0.0000 -0.9569 0.2903
vn -0.0000 -0.8819 0.4714
vn -0.0000 -0.7730 0.6344
vn -0.0000 -0.6344 0.7730
vn -0.0000 -0.4714 0.8819
vn -0.0000 -0.2903 0.9569
vn -0.0000 -0.0980 0.9952
vn -0.0000 0.0980 0.9952
vn -0.0000 0.2903 0.9569
vn -0.0000 0.4714 0.8819
vn -0.0000 0.6344 0.7730
vn -0.0000 0.7730 0.6344
vn -0.0000 0.8819 0.4714
vn -0.0000 0.9569 0.2903
vn -0.0000 0.9952 0.0980
vn -0.0000 0.9952 -0.0980
vn -0.0000 0.9569 -0.2903
vn -0.0000 0.8819 -0.4714
vn -0.0000 0.7730 -0.6344
vn -0.0000 0.6344 -0.7730
vn -0.0000 0.4714 -0.8819
vn -0.0000 0.2903 -0.9569
vn -0.0000 0.0980 -0.9952
vt 0.277388 0.071818
vt 0.233980 0.071778
vt 0.234001 -0.000000
vt 0.277409 0.000040
vt 0.277457 0.617343
vt 0.234280 0.617332
vt 0.233837 0.551948
vt 0.277245 0.551987
vt 0.086274 0.559806
vt 0.086274 0.631530
vt 0.077930 0.639770
vt 0.008344 0.639736
vt 0.000000 0.631489
vt 0.000000 0.559765
vt 0.937199 0.466222
vt 0.930659 0.423144
vt 0.987199 0.423166
vt 0.980659 0.466238
vt 0.190273 0.000044
vt 0.233667 0.000000
vt 0.233689 0.071778
vt 0.190295 0.071822
vt 0.086274 0.239936
vt 0.086274 0.319904
vt 0.000000 0.319863
vt 0.000000 0.239895
vt 0.146393 0.240046
vt 0.146393 0.320061
vt 0.086274 0.320064
vt 0.086274 0.240048
vt 0.277293 0.391931
vt 0.233885 0.391891
vt 0.233908 0.311863
vt 0.277316 0.311903
vt 0.190344 0.231878
vt 0.233739 0.231834
vt 0.233763 0.311862
vt 0.190369 0.311906
vt 0.277263 0.491966
vt 0.233855 0.491926
vt 0.233861 0.471919
vt 0.277269 0.471959
vt 0.086274 0.139977
vt 0.086274 0.159969
vt 0.000000 0.159928
vt 0.000000 0.139936
vt 0.146393 0.400076
vt 0.146393 0.480092
vt 0.086274 0.480094
vt 0.086274 0.400079
vt 0.190394 0.391934
vt 0.233788 0.391889
vt 0.233813 0.471917
vt 0.190418 0.471961
vt 0.190443 0.551989
vt 0.233837 0.551945
vt 0.233424 0.617336
vt 0.190247 0.617348
vt 0.071405 0.000027
vt 0.076818 0.014720
vt 0.086274 0.080002
vt -0.000000 0.079960
vt 0.009456 0.014687
vt 0.014868 0.000000
vt 0.146393 0.520099
vt 0.146393 0.560107
vt 0.086274 0.560110
vt 0.086274 0.520102
vt 0.190431 0.511975
vt 0.233825 0.511931
vt 0.233714 0.151806
vt 0.190320 0.151850
vt 0.146393 0.080015
vt 0.146393 0.160030
vt 0.086274 0.160033
vt 0.086274 0.080018
vt 0.086274 0.399871
vt 0.086274 0.479839
vt 0.000000 0.479797
vt 0.000000 0.399830
vt 0.277340 0.231874
vt 0.233932 0.231835
vt 0.233956 0.151806
vt 0.277364 0.151846
vt 0.385780 0.888681
vt 0.379240 0.845660
vt 0.448831 0.845660
vt 0.442291 0.888681
vt 0.377435 0.889294
vt 0.370895 0.846273
vt 0.447365 0.910805
vt 0.444095 0.932315
vt 0.435751 0.931701
vt 0.439021 0.910191
vt 0.138048 0.000000
vt 0.146393 0.008248
vt 0.086274 0.008251
vt 0.094618 0.000002
vt 0.168090 0.632139
vt 0.146393 0.632161
vt 0.147069 0.617360
vt 0.168658 0.617354
vt 0.299045 0.617349
vt 0.320634 0.617354
vt 0.321356 0.632145
vt 0.299652 0.632126
vt 0.146393 0.625424
vt 0.131524 0.640123
vt 0.101143 0.640124
vt 0.086274 0.625426
vt 0.190425 0.491968
vt 0.233819 0.491924
vt 0.146393 0.500096
vt 0.086274 0.500098
vt 0.086274 0.119985
vt 0.000000 0.119944
vt 0.298949 0.552007
vt 0.277257 0.511973
vt 0.298961 0.511993
vt 0.287969 0.866929
vt 0.307958 0.867238
vt 0.307958 0.898033
vt 0.291858 0.899082
vt 0.060627 0.813913
vt 0.081796 0.818939
vt 0.081796 0.851990
vt 0.060627 0.846963
vt 0.168721 0.471983
vt 0.168728 0.491990
vt 0.292243 0.834871
vt 0.304640 0.832586
vt 0.303404 0.856424
vt 0.291007 0.858709
vt 0.168734 0.511997
vt 0.277948 0.632106
vt 0.234540 0.632066
vt 0.233181 0.632073
vt 0.189787 0.632117
vt 0.457175 0.846274
vt 0.450635 0.889294
vt 0.380705 0.910804
vt 0.389050 0.910191
vt 0.299068 0.151866
vt 0.299092 0.071838
vt 0.168623 0.151872
vt 0.168647 0.231900
vt 0.299020 0.311922
vt 0.299044 0.231894
vt 0.168598 0.071844
vt 0.168746 0.552011
vt 0.298973 0.471979
vt 0.298997 0.391951
vt 0.168672 0.311928
vt 0.168697 0.391956
vt 0.298967 0.491986
vt 0.168576 0.000066
vt 0.940469 0.487760
vt 0.977389 0.487775
vt 0.299113 0.000059
vt 0.320796 0.071857
vt 0.320817 0.000079
vt 0.320653 0.552027
vt 0.943739 0.509299
vt 0.974119 0.509311
vt 0.146879 0.000088
vt 0.146901 0.071866
vt 0.320701 0.391970
vt 0.320724 0.311942
vt 0.146950 0.231922
vt 0.146975 0.311950
vt 0.320671 0.492006
vt 0.320677 0.471999
vt 0.147000 0.391978
vt 0.147024 0.472005
vt 0.147049 0.552033
vt 0.147037 0.512019
vt 0.146926 0.151894
vt 0.320748 0.231914
vt 0.320772 0.151886
vt 0.392320 0.931701
vt 0.383975 0.932315
vt 0.147031 0.492012
vt 0.304331 0.864217
vt 0.289615 0.866929
vt 0.287969 0.865433
vt 0.306221 0.862058
vt 0.845383 0.421131
vt 0.825379 0.421131
vt 0.828987 0.388748
vt 0.845146 0.390515
vt 0.320665 0.512013
vt 0.233849 0.511934
vt 0.828595 0.386791
vt 0.841772 0.386791
vt 0.211571 0.806283
vt 0.227744 0.804149
vt 0.224346 0.808686
vt 0.211168 0.808683
vt 0.078718 0.854758
vt 0.064176 0.851305
vt 0.211155 0.823593
vt 0.224333 0.823597
vt 0.287969 0.831114
vt 0.309391 0.827165
vt 0.868220 0.897575
vt 0.814092 0.897575
vt 0.814653 0.880450
vt 0.867597 0.880450
vt 0.721219 0.423127
vt 0.715985 0.340718
vt 0.770113 0.340739
vt 0.765085 0.423144
vt 0.575546 0.845660
vt 0.557733 0.762180
vt 0.715981 0.762132
vt 0.701306 0.845621
vt 0.336035 0.422837
vt 0.321356 0.339344
vt 0.479604 0.339391
vt 0.461795 0.422874
vt 0.814297 0.846111
vt 0.867992 0.846111
vt 0.770386 0.087007
vt 0.716258 0.086986
vt 0.716232 0.070414
vt 0.770360 0.070435
vt 0.676969 0.510434
vt 0.511847 0.510485
vt 0.508656 0.493598
vt 0.680646 0.493652
vt 0.525491 0.087732
vt 0.360369 0.087683
vt 0.356692 0.070904
vt 0.528683 0.070846
vt 0.238967 0.903670
vt 0.233837 0.819242
vt 0.287966 0.819242
vt 0.282834 0.903671
vt 0.228952 0.663943
vt 0.228952 0.632161
vt 0.230900 0.633872
vt 0.229535 0.663969
vt 0.227006 0.663944
vt 0.227006 0.632161
vt 0.228952 0.633873
vt 0.227589 0.663970
vt 0.219631 0.632162
vt 0.219631 0.718539
vt 0.219047 0.718550
vt 0.217528 0.632189
vt 0.807228 0.916085
vt 0.808847 0.829698
vt 0.814091 0.809980
vt 0.814091 0.935721
vt 0.777100 0.829727
vt 0.775475 0.916059
vt 0.770224 0.935722
vt 0.770224 0.809982
vt 0.777572 0.919346
vt 0.806750 0.919345
vt 0.811326 0.932461
vt 0.772996 0.932463
vt 0.315571 0.639549
vt 0.315571 0.711344
vt 0.290524 0.711345
vt 0.290524 0.639550
vt 0.287969 0.632147
vt 0.318097 0.632145
vt 0.203948 0.711415
vt 0.202690 0.639620
vt 0.209056 0.632208
vt 0.210570 0.718568
vt 0.212417 0.711368
vt 0.211155 0.639573
vt 0.318097 0.718505
vt 0.287969 0.718506
vt 0.806750 0.826411
vt 0.777572 0.826412
vt 0.772996 0.813296
vt 0.811326 0.813295
vt 0.211154 0.632161
vt 0.211154 0.718558
vt 0.494473 0.221948
vt 0.341496 0.221903
vt 0.346932 0.205126
vt 0.492472 0.205169
vt 0.695841 0.644673
vt 0.542865 0.644720
vt 0.544866 0.627939
vt 0.690406 0.627894
vt 0.770254 0.222225
vt 0.716126 0.222204
vt 0.716164 0.205133
vt 0.770292 0.205154
vt 0.287967 0.700874
vt 0.233838 0.700874
vt 0.233838 0.684271
vt 0.287967 0.684271
vt 0.287966 0.768710
vt 0.233838 0.768710
vt 0.233837 0.752196
vt 0.287966 0.752197
vt 0.770128 0.290297
vt 0.716001 0.290276
vt 0.716024 0.273325
vt 0.770151 0.273346
vt 0.713736 0.711790
vt 0.554015 0.711840
vt 0.557218 0.695058
vt 0.710487 0.695011
vt 0.483323 0.289057
vt 0.323601 0.289010
vt 0.326851 0.272233
vt 0.480120 0.272278
vt 0.556543 0.146465
vt 0.361590 0.146407
vt 0.362812 0.138018
vt 0.621043 0.145020
vt 0.675747 0.569167
vt 0.480795 0.569227
vt 0.416295 0.567783
vt 0.674525 0.560777
vt 0.770394 0.145645
vt 0.716267 0.145625
vt 0.716275 0.137171
vt 0.770403 0.137192
vt 0.200550 0.791990
vt 0.146422 0.791927
vt 0.146496 0.727410
vt 0.200625 0.727473
vt 0.287967 0.667333
vt 0.233838 0.667333
vt 0.233839 0.649812
vt 0.287968 0.649812
vt 0.770328 0.188097
vt 0.716200 0.188077
vt 0.716232 0.171053
vt 0.770360 0.171073
vt 0.685233 0.611115
vt 0.542359 0.611159
vt 0.532012 0.594382
vt 0.680646 0.594336
vt 0.494979 0.188392
vt 0.352105 0.188349
vt 0.356691 0.171573
vt 0.505326 0.171617
vt 0.516259 0.121285
vt 0.363698 0.121240
vt 0.362812 0.104462
vt 0.516414 0.104507
vt 0.673639 0.543996
vt 0.521079 0.544043
vt 0.520924 0.527263
vt 0.674525 0.527215
vt 0.770409 0.120370
vt 0.716281 0.120350
vt 0.716275 0.103625
vt 0.770403 0.103646
vt 0.868220 0.931765
vt 0.814091 0.931764
vt 0.814091 0.915001
vt 0.868220 0.915001
vt 0.483327 0.322593
vt 0.321356 0.322545
vt 0.321708 0.305788
vt 0.485178 0.305836
vt 0.715981 0.745330
vt 0.554011 0.745380
vt 0.552160 0.728621
vt 0.715630 0.728570
vt 0.770113 0.323945
vt 0.715985 0.323924
vt 0.715988 0.307153
vt 0.770115 0.307173
vt 0.287966 0.802193
vt 0.233838 0.802192
vt 0.233838 0.785324
vt 0.287966 0.785324
vt 0.287966 0.735236
vt 0.233837 0.735236
vt 0.233838 0.717936
vt 0.287967 0.717937
vt 0.770181 0.256338
vt 0.716053 0.256317
vt 0.716088 0.239271
vt 0.770216 0.239292
vt 0.706205 0.678231
vt 0.554405 0.678278
vt 0.547042 0.661500
vt 0.701216 0.661452
vt 0.482933 0.255501
vt 0.331132 0.255456
vt 0.336122 0.238679
vt 0.490296 0.238725
vt 0.140658 0.692953
vt 0.086535 0.693342
vt 0.086274 0.640513
vt 0.140397 0.640124
vt 0.770406 0.128781
vt 0.716278 0.128760
vt 0.674082 0.552386
vt 0.468679 0.555913
vt 0.568659 0.133153
vt 0.363255 0.129629
vt 0.233840 0.632145
vt 0.287969 0.632146
vt 0.716258 0.154078
vt 0.770386 0.154099
vt 0.519708 0.577605
vt 0.676969 0.577557
vt 0.360369 0.154796
vt 0.517631 0.154842
vt 0.200522 0.831056
vt 0.146393 0.830992
vt 0.594847 0.139087
vt 0.363034 0.133824
vt 0.674304 0.556582
vt 0.442491 0.561848
vt 0.770404 0.132987
vt 0.716277 0.132966
vt 0.140789 0.719354
vt 0.086665 0.719743
vt 0.370505 0.567237
vt 0.396701 0.561302
vt 0.666827 0.144521
vt 0.640631 0.138587
vt 0.663354 0.136093
vt 0.689550 0.142027
vt 0.141646 0.765081
vt 0.087523 0.765470
vt 0.147051 0.681620
vt 0.201180 0.681683
vt 0.089215 0.788071
vt 0.143339 0.787682
vt 0.140397 0.813524
vt 0.086274 0.813913
vt 0.347763 0.564602
vt 0.373959 0.558667
vt 0.148561 0.658845
vt 0.202690 0.658908
vt 0.715985 0.128054
vt 0.689796 0.121217
vt 0.690636 0.064384
vt 0.710023 0.048658
vt 0.146393 0.632161
vt 0.200489 0.632193
vt 0.321356 0.549184
vt 0.347560 0.544103
vt 0.678097 0.016566
vt 0.697476 0.000038
vt 0.327326 0.469851
vt 0.346695 0.487076
vt 0.056080 0.942334
vt 0.001953 0.942314
vt 0.000000 0.885355
vt 0.054128 0.885376
vt 0.770098 0.935243
vt 0.715985 0.936359
vt 0.716180 0.857559
vt 0.770224 0.856459
vt 0.516689 0.439410
vt 0.497310 0.422879
vt 0.519800 0.422874
vt 0.539178 0.439405
vt 0.339881 0.422915
vt 0.359260 0.439445
vt 0.001960 0.838343
vt 0.056087 0.838364
vt 0.715985 0.809980
vt 0.770111 0.810512
vt 0.814091 0.813673
vt 0.868220 0.813673
vt 0.356692 0.035655
vt 0.522151 0.035948
vt 0.515187 0.458693
vt 0.680646 0.458399
vt 0.716232 0.035177
vt 0.770360 0.035197
vt 0.054307 0.658562
vt 0.000182 0.658481
vt -0.000000 0.639770
vt 0.054125 0.639850
vt 0.953146 0.509312
vt 0.953146 0.563441
vt 0.930659 0.563440
vt 0.930659 0.509311
vt 0.054284 0.681034
vt 0.000159 0.680954
vt 0.540046 0.000005
vt 0.520668 0.016533
vt 0.498178 0.016528
vt 0.517556 -0.000000
vt 0.814091 0.811766
vt 0.868220 0.811766
vt 0.356620 0.003131
vt 0.521723 0.003416
vt 0.515615 0.426157
vt 0.680725 0.425833
vt 0.727951 0.002094
vt 0.758641 0.002105
vt 0.869529 0.964496
vt 0.881168 0.799591
vt 0.887605 0.799551
vt 0.869551 0.964425
vt 0.356620 0.002048
vt 0.521723 0.001506
vt 0.515615 0.424247
vt 0.680725 0.424750
vt 0.727951 0.001011
vt 0.758641 0.001023
vt 0.905445 0.799551
vt 0.923676 0.964425
vt 0.911857 0.799591
vt 0.923654 0.964496
vt 0.734376 -0.000000
vt 0.752216 0.000007
vt 0.814091 0.809980
vt 0.868220 0.809981
vt 0.588137 0.016547
vt 0.607516 0.000019
vt 0.054125 0.838343
vt -0.000000 0.838263
vt 0.000091 0.748372
vt 0.054216 0.748452
vt 0.086274 0.813915
vt 0.140402 0.813913
vt 0.140402 0.903858
vt 0.086274 0.903860
vt 0.429840 0.422895
vt 0.449219 0.439425
vt 0.585026 0.000014
vt 0.565887 0.017799
vt 0.543968 0.017794
vt 0.562536 0.000010
vt 0.054238 0.725980
vt 0.000114 0.725899
vt 0.000136 0.703426
vt 0.054261 0.703507
vt 0.471469 0.440674
vt 0.493388 0.440669
vt 0.479109 0.478493
vt 0.465135 0.478496
vt 0.452330 0.422890
vt 0.474820 0.422885
vt 0.139718 0.926123
vt 0.086963 0.926126
vt 0.976424 0.510003
vt 0.976424 0.562757
vt 0.558254 0.055642
vt 0.572228 0.055645
vt 0.592145 0.074774
vt 0.578171 0.074771
vt 0.967255 0.616195
vt 0.967235 0.668948
vt 0.930659 0.659488
vt 0.930672 0.625856
vt 0.967502 0.563441
vt 0.967502 0.616195
vt 0.930659 0.606635
vt 0.930660 0.573002
vt 0.597278 0.082293
vt 0.581715 0.082274
vt 0.866040 0.420424
vt 0.866040 0.386791
vt 0.885591 0.386834
vt 0.885591 0.420467
vt 0.845383 0.420421
vt 0.845383 0.386791
vt 0.866040 0.387013
vt 0.866040 0.420644
vt 0.459192 0.497625
vt 0.445218 0.497628
vt 0.455647 0.505136
vt 0.440084 0.505154
vt 0.084289 0.641633
vt 0.084276 0.675265
vt 0.076876 0.677178
vt 0.076890 0.639770
vt 0.211545 0.895361
vt 0.211545 0.928994
vt 0.204327 0.930900
vt 0.204327 0.893456
vt 0.060627 0.893346
vt 0.060627 0.855937
vt 0.067988 0.854758
vt 0.067988 0.894555
vt 0.448156 0.511519
vt 0.441197 0.509841
vt 0.596165 0.086980
vt 0.589206 0.088652
vt 0.199579 0.930604
vt 0.199579 0.893752
vt 0.074988 0.856227
vt 0.074988 0.893079
vt 0.929939 0.506238
vt 0.870252 0.506238
vt 0.872045 0.491875
vt 0.929955 0.491875
vt 0.929831 0.375481
vt 0.926918 0.304093
vt 0.982119 0.304115
vt 0.979369 0.375500
vt 0.748473 0.799318
vt 0.742248 0.726042
vt 0.866612 0.739459
vt 0.847306 0.809980
vt 0.792638 0.386791
vt 0.773330 0.316272
vt 0.897693 0.302851
vt 0.891471 0.376125
vt 0.871266 0.462289
vt 0.930400 0.462289
vt 0.984663 0.083989
vt 0.924978 0.083966
vt 0.926221 0.069529
vt 0.983400 0.069551
vt 0.847153 0.518130
vt 0.727579 0.505230
vt 0.732548 0.491039
vt 0.850173 0.503905
vt 0.912360 0.082063
vt 0.792786 0.094967
vt 0.789767 0.080748
vt 0.907389 0.067963
vt 0.875322 0.799550
vt 0.872492 0.726574
vt 0.927694 0.726574
vt 0.924861 0.799551
vt 0.318097 0.668021
vt 0.319784 0.634036
vt 0.318603 0.668038
vt 0.078144 0.736807
vt 0.078144 0.700930
vt 0.079828 0.702821
vt 0.078649 0.736824
vt 0.061695 0.639770
vt 0.061695 0.708045
vt 0.061189 0.708055
vt 0.059854 0.639795
vt 0.363143 0.929534
vt 0.364972 0.861248
vt 0.370895 0.845660
vt 0.370895 0.945050
vt 0.329119 0.861273
vt 0.327285 0.929512
vt 0.321356 0.945052
vt 0.321356 0.845662
vt 0.329653 0.932110
vt 0.362604 0.932108
vt 0.367771 0.942476
vt 0.324485 0.942478
vt 0.230748 0.831056
vt 0.230746 0.887805
vt 0.202461 0.887805
vt 0.202463 0.831056
vt 0.085665 0.705895
vt 0.084684 0.734163
vt 0.220736 0.694840
vt 0.219631 0.638093
vt 0.225171 0.632209
vt 0.226500 0.700469
vt 0.055417 0.702394
vt 0.054307 0.645647
vt 0.233603 0.893456
vt 0.199579 0.893456
vt 0.362604 0.858650
vt 0.329653 0.858651
vt 0.324485 0.848284
vt 0.367771 0.848282
vt 0.227006 0.632161
vt 0.227006 0.700459
vt 0.900298 0.200180
vt 0.778223 0.213354
vt 0.780929 0.198616
vt 0.904253 0.185307
vt 0.861716 0.636535
vt 0.739641 0.623365
vt 0.735688 0.608481
vt 0.859012 0.621786
vt 0.985193 0.201621
vt 0.924067 0.201597
vt 0.927360 0.186846
vt 0.981960 0.186867
vt 0.930657 0.624068
vt 0.869530 0.624067
vt 0.872793 0.609155
vt 0.927395 0.609156
vt 0.930657 0.682264
vt 0.869530 0.682264
vt 0.873038 0.668173
vt 0.927148 0.668173
vt 0.985094 0.260466
vt 0.923968 0.260442
vt 0.927495 0.245786
vt 0.981603 0.245806
vt 0.869529 0.695812
vt 0.736062 0.681413
vt 0.743086 0.667724
vt 0.868544 0.681259
vt 0.903877 0.258219
vt 0.770409 0.272622
vt 0.771397 0.258082
vt 0.896856 0.244543
vt 0.913998 0.133080
vt 0.787536 0.146727
vt 0.788810 0.139179
vt 0.914970 0.131594
vt 0.852404 0.569893
vt 0.725943 0.556250
vt 0.724968 0.554770
vt 0.851128 0.562351
vt 0.983127 0.135391
vt 0.926363 0.135369
vt 0.924197 0.127996
vt 0.985323 0.128019
vt 0.928478 0.557271
vt 0.871712 0.557271
vt 0.869532 0.555924
vt 0.930659 0.555924
vt 0.930657 0.595043
vt 0.869530 0.595043
vt 0.872604 0.580071
vt 0.927584 0.580071
vt 0.985252 0.172126
vt 0.924126 0.172103
vt 0.927225 0.157388
vt 0.982203 0.157409
vt 0.856503 0.606756
vt 0.742410 0.594447
vt 0.737658 0.579468
vt 0.854466 0.592070
vt 0.897528 0.171266
vt 0.783435 0.183579
vt 0.785475 0.168903
vt 0.902284 0.156298
vt 0.923956 0.110109
vt 0.791267 0.124433
vt 0.792928 0.109616
vt 0.920222 0.095867
vt 0.848674 0.547594
vt 0.715985 0.533275
vt 0.719718 0.519033
vt 0.847012 0.532777
vt 0.982816 0.113279
vt 0.926760 0.113258
vt 0.926147 0.098563
vt 0.983475 0.098585
vt 0.928215 0.534603
vt 0.871977 0.534602
vt 0.871191 0.520266
vt 0.929001 0.520266
vt 0.899849 0.287848
vt 0.771768 0.301670
vt 0.770480 0.287410
vt 0.904030 0.272998
vt 0.868171 0.724864
vt 0.740089 0.711046
vt 0.735912 0.696182
vt 0.869462 0.710590
vt 0.985082 0.289580
vt 0.923956 0.289557
vt 0.927801 0.275043
vt 0.981240 0.275064
vt 0.930657 0.711779
vt 0.869529 0.711779
vt 0.873374 0.696868
vt 0.926813 0.696868
vt 0.930657 0.653824
vt 0.869529 0.653824
vt 0.872120 0.638951
vt 0.928067 0.638951
vt 0.985136 0.231105
vt 0.924010 0.231081
vt 0.926627 0.216349
vt 0.982573 0.216370
vt 0.866736 0.666294
vt 0.746651 0.653338
vt 0.743220 0.638479
vt 0.864382 0.651551
vt 0.893288 0.230149
vt 0.773202 0.243108
vt 0.775559 0.228375
vt 0.896722 0.215300
vt 0.930659 0.545290
vt 0.869532 0.545290
vt 0.985336 0.120657
vt 0.924210 0.120634
vt 0.850035 0.554929
vt 0.720831 0.544005
vt 0.919108 0.120830
vt 0.789903 0.131758
vt 0.869531 0.564878
vt 0.930659 0.564878
vt 0.924172 0.142709
vt 0.985298 0.142732
vt 0.729939 0.563885
vt 0.853108 0.577173
vt 0.786830 0.153999
vt 0.909999 0.140708
vt 0.917479 0.126165
vt 0.789313 0.135474
vt 0.850625 0.558645
vt 0.722459 0.549340
vt 0.985329 0.124341
vt 0.924203 0.124317
vt 0.930659 0.550574
vt 0.869532 0.550574
vt 0.869714 0.434063
vt 0.930476 0.434063
vt 0.781496 0.050932
vt 0.896708 0.038713
vt 0.743230 0.461801
vt 0.858444 0.474086
vt 0.925714 0.039305
vt 0.983836 0.039327
vt 0.076876 0.639878
vt 0.076853 0.700930
vt 0.061695 0.700675
vt 0.061718 0.639770
vt 0.078144 0.701524
vt 0.078141 0.761835
vt 0.061695 0.761837
vt 0.061695 0.700930
vt 0.869649 0.432398
vt 0.930541 0.432398
vt 0.771454 0.023840
vt 0.895316 0.010475
vt 0.744623 0.433633
vt 0.868484 0.446993
vt 0.924299 0.011754
vt 0.985152 0.011777
vt 0.895333 0.008808
vt 0.770980 0.022225
vt 0.770559 0.020712
vt 0.895352 0.007246
vt 0.744606 0.431965
vt 0.868958 0.445379
vt 0.924240 0.010118
vt 0.985207 0.010141
vt 0.930591 0.430839
vt 0.869599 0.430839
vt 0.869584 0.430263
vt 0.930606 0.430264
vt 0.744587 0.430403
vt 0.869380 0.443865
vt 0.924197 0.008585
vt 0.985246 0.008608
vt 0.924185 0.008019
vt 0.985257 0.008042
vt 0.744579 0.429828
vt 0.869529 0.443307
vt 0.873500 0.423144
vt 0.926689 0.423144
vt 0.193072 0.843950
vt 0.193072 0.930987
vt 0.153028 0.930969
vt 0.153028 0.843931
vt 0.776599 0.011999
vt 0.887786 0.000000
vt 0.895360 0.006671
vt 0.770409 0.020153
vt 0.752156 0.423144
vt 0.863344 0.435139
vt 0.146393 0.942804
vt 0.146393 0.831055
vt 0.199579 0.831081
vt 0.199579 0.942829
vt 0.928176 0.000000
vt 0.981365 0.000020
vt 0.923956 0.397826
vt 0.966638 0.397813
vt 0.966641 0.403143
vt 0.923958 0.403156
vt 0.966647 0.408297
vt 0.923964 0.408310
vt 0.966657 0.413077
vt 0.923975 0.413091
vt 0.966671 0.417301
vt 0.923989 0.417314
vt 0.966688 0.420805
vt 0.924006 0.420818
vt 0.229691 0.761386
vt 0.229691 0.804062
vt 0.226812 0.804110
vt 0.226812 0.761434
vt 0.223686 0.804139
vt 0.223686 0.761463
vt 0.220433 0.804149
vt 0.220433 0.761473
vt 0.217177 0.804139
vt 0.217177 0.761463
vt 0.214044 0.804110
vt 0.214044 0.761434
vt 0.211155 0.804062
vt 0.211155 0.761386
vt 0.128956 0.971437
vt 0.086274 0.971424
vt 0.086289 0.967913
vt 0.128972 0.967925
vt 0.086302 0.963683
vt 0.128984 0.963696
vt 0.086311 0.958899
vt 0.128994 0.958911
vt 0.086317 0.953742
vt 0.128999 0.953755
vt 0.086319 0.948412
vt 0.129001 0.948425
vt 0.086317 0.943114
vt 0.128999 0.943127
vt 0.086311 0.938050
vt 0.128994 0.938063
vt 0.086302 0.933416
vt 0.128984 0.933429
vt 0.086289 0.929390
vt 0.128972 0.929403
vt 0.086274 0.926126
vt 0.128956 0.926138
vt 0.211155 0.761377
vt 0.211155 0.718726
vt 0.214069 0.718628
vt 0.214069 0.761279
vt 0.217217 0.718569
vt 0.217217 0.761219
vt 0.220478 0.718550
vt 0.220478 0.761200
vt 0.223726 0.718572
vt 0.223726 0.761222
vt 0.226836 0.718634
vt 0.226836 0.761285
vt 0.229690 0.718735
vt 0.229690 0.761386
vt 0.924006 0.375513
vt 0.966688 0.375500
vt 0.966671 0.378772
vt 0.923989 0.378785
vt 0.966657 0.382806
vt 0.923975 0.382819
vt 0.966647 0.387445
vt 0.923964 0.387458
vt 0.287969 0.750000
vt 0.287969 0.744677
vt 0.288609 0.739394
vt 0.289864 0.734352
vt 0.291686 0.729746
vt 0.294006 0.725753
vt 0.296733 0.722526
vt 0.299763 0.720189
vt 0.302980 0.718831
vt 0.306260 0.718506
vt 0.309477 0.719226
vt 0.312507 0.720962
vt 0.315235 0.723649
vt 0.317554 0.727183
vt 0.319376 0.731428
vt 0.320631 0.736220
vt 0.321271 0.741377
vt 0.321271 0.746700
vt 0.320631 0.751983
vt 0.319376 0.757025
vt 0.317554 0.761631
vt 0.315235 0.765624
vt 0.312507 0.768851
vt 0.309477 0.771188
vt 0.306260 0.772545
vt 0.302980 0.772870
vt 0.299763 0.772151
vt 0.296733 0.770414
vt 0.294006 0.767728
vt 0.291686 0.764194
vt 0.289864 0.759949
vt 0.288609 0.755156
vt 0.966641 0.392513
vt 0.923958 0.392526
vt 0.897620 0.414301
vt 0.895196 0.414347
vt 0.895196 0.386919
vt 0.897620 0.386873
vt 0.316951 0.804856
vt 0.317444 0.800793
vt 0.321273 0.801024
vt 0.320633 0.806301
vt 0.315984 0.808734
vt 0.319377 0.811336
vt 0.314581 0.812276
vt 0.317555 0.815937
vt 0.312795 0.815348
vt 0.315236 0.819925
vt 0.310695 0.817831
vt 0.312508 0.823149
vt 0.308361 0.819628
vt 0.309478 0.825484
vt 0.305884 0.820673
vt 0.306261 0.826840
vt 0.303358 0.820923
vt 0.302981 0.827165
vt 0.300880 0.820370
vt 0.299764 0.826447
vt 0.298547 0.819035
vt 0.296733 0.824714
vt 0.296446 0.816970
vt 0.294006 0.822031
vt 0.294660 0.814252
vt 0.291686 0.818503
vt 0.293257 0.810988
vt 0.289864 0.814264
vt 0.292290 0.807302
vt 0.288609 0.809477
vt 0.291798 0.803336
vt 0.287969 0.804327
vt 0.291798 0.799243
vt 0.287969 0.799012
vt 0.292290 0.795180
vt 0.288609 0.793735
vt 0.293257 0.791302
vt 0.289864 0.788699
vt 0.294660 0.787759
vt 0.291686 0.784099
vt 0.296446 0.784688
vt 0.294006 0.780110
vt 0.298547 0.782205
vt 0.296733 0.776887
vt 0.300880 0.780407
vt 0.299764 0.774552
vt 0.303358 0.779363
vt 0.302981 0.773196
vt 0.305884 0.779112
vt 0.306261 0.772870
vt 0.308361 0.779665
vt 0.309478 0.773588
vt 0.310695 0.781000
vt 0.312508 0.775322
vt 0.312795 0.783066
vt 0.315236 0.778005
vt 0.314581 0.785783
vt 0.317555 0.781533
vt 0.315984 0.789048
vt 0.319377 0.785772
vt 0.316951 0.792733
vt 0.320633 0.790559
vt 0.317444 0.796699
vt 0.321273 0.795708
vt 0.086274 0.793782
vt 0.085781 0.797846
vt 0.084814 0.801723
vt 0.083411 0.805266
vt 0.081625 0.808338
vt 0.079524 0.810820
vt 0.077191 0.812618
vt 0.074713 0.813662
vt 0.072187 0.813913
vt 0.069710 0.813360
vt 0.067376 0.812025
vt 0.065276 0.809959
vt 0.063490 0.807242
vt 0.062087 0.803978
vt 0.061120 0.800292
vt 0.060627 0.796326
vt 0.060627 0.792233
vt 0.061120 0.788169
vt 0.062087 0.784292
vt 0.063490 0.780749
vt 0.065276 0.777677
vt 0.067376 0.775195
vt 0.069710 0.773397
vt 0.072187 0.772353
vt 0.074713 0.772102
vt 0.077191 0.772655
vt 0.079524 0.773990
vt 0.081625 0.776056
vt 0.083411 0.778773
vt 0.084814 0.782037
vt 0.085781 0.785723
vt 0.086274 0.789689
vt 0.770422 0.389497
vt 0.770409 0.386799
vt 0.797857 0.386791
vt 0.797871 0.389489
vt 0.892685 0.414361
vt 0.892685 0.386934
vt 0.899864 0.386858
vt 0.902081 0.386821
vt 0.902081 0.414265
vt 0.899864 0.414302
vt 0.890184 0.414344
vt 0.890184 0.386917
vt 0.904488 0.386798
vt 0.904488 0.414243
vt 0.887788 0.414296
vt 0.887788 0.386868
vt 0.906994 0.386791
vt 0.906994 0.414235
vt 0.885591 0.414218
vt 0.885591 0.386791
vt 0.909501 0.386798
vt 0.909501 0.414242
vt 0.770409 0.421687
vt 0.770422 0.419167
vt 0.797871 0.419159
vt 0.797857 0.421678
vt 0.911913 0.386821
vt 0.911913 0.414265
vt 0.770433 0.416061
vt 0.797881 0.416052
vt 0.914139 0.386857
vt 0.914139 0.414302
vt 0.770441 0.412488
vt 0.797889 0.412480
vt 0.825344 0.404519
vt 0.825346 0.408599
vt 0.797897 0.408591
vt 0.797896 0.404511
vt 0.825379 0.386799
vt 0.825367 0.389503
vt 0.797919 0.389494
vt 0.797930 0.386791
vt 0.770446 0.408586
vt 0.797894 0.408578
vt 0.825350 0.412499
vt 0.797902 0.412491
vt 0.825357 0.392759
vt 0.797909 0.392751
vt 0.770447 0.404504
vt 0.797896 0.404496
vt 0.825357 0.416067
vt 0.797909 0.416059
vt 0.825350 0.396444
vt 0.797902 0.396436
vt 0.770446 0.400400
vt 0.797894 0.400392
vt 0.825367 0.419168
vt 0.797919 0.419160
vt 0.825346 0.400415
vt 0.797897 0.400407
vt 0.770441 0.396431
vt 0.797889 0.396423
vt 0.825379 0.421681
vt 0.797930 0.421673
vt 0.770433 0.392750
vt 0.797881 0.392741
vt 0.899864 0.414225
vt 0.899864 0.386798
s 0
usemtl Material
f 66/1/1 26/2/1 32/3/1 67/4/1
f 73/5/2 39/6/2 16/7/2 59/8/2
f 27/9/3 35/10/3 36/11/3 31/12/3 32/13/3 26/14/3
f 71/15/4 43/16/4 40/17/4 74/18/4
f 69/19/5 35/20/5 27/21/5 65/22/5
f 11/23/3 2/24/3 4/25/3 10/26/3
f 23/27/6 1/28/6 3/29/6 22/30/6
f 58/31/1 10/32/1 4/33/1 53/34/1
f 64/35/5 21/36/5 2/37/5 54/38/5
f 77/39/1 50/40/1 8/41/1 55/42/1
f 51/43/3 5/44/3 8/45/3 50/46/3
f 9/47/6 7/48/6 6/49/6 12/50/6
f 57/51/5 11/52/5 5/53/5 56/54/5
f 54/38/5 2/37/5 11/52/5 57/51/5
f 1/28/6 9/47/6 12/50/6 3/29/6
f 55/42/1 8/41/1 10/32/1 58/31/1
f 5/44/3 11/23/3 10/26/3 8/45/3
f 60/55/7 13/56/7 44/57/7 72/58/7
f 43/59/3 44/60/3 13/61/3 16/62/3 39/63/3 40/64/3
f 45/65/6 15/66/6 14/67/6 48/68/6
f 75/69/5 47/70/5 13/56/5 60/55/5
f 65/22/5 27/21/5 19/71/5 61/72/5
f 25/73/6 17/74/6 20/75/6 28/76/6
f 21/77/3 19/78/3 18/79/3 24/80/3
f 63/81/1 24/82/1 18/83/1 62/84/1
f 53/34/1 4/33/1 24/82/1 63/81/1
f 2/24/3 21/77/3 24/80/3 4/25/3
f 61/72/5 19/71/5 21/36/5 64/35/5
f 17/74/6 23/27/6 22/30/6 20/75/6
f 68/85/8 31/86/8 36/87/8 70/88/8
f 19/78/3 27/9/3 26/14/3 18/79/3
f 62/84/1 18/83/1 26/2/1 66/1/1
f 67/89/9 32/90/9 31/86/9 68/85/9
f 93/91/10 34/92/10 33/93/10 100/94/10
f 33/95/6 34/96/6 25/73/6 28/76/6 29/97/6 30/98/6
f 94/99/11 42/100/11 41/101/11 101/102/11
f 95/103/12 38/104/12 37/105/12 102/106/12
f 15/66/6 41/107/6 42/108/6 37/109/6 38/110/6 14/67/6
f 76/111/5 51/112/5 47/70/5 75/69/5
f 49/113/6 45/65/6 48/68/6 52/114/6
f 13/61/3 47/115/3 46/116/3 16/62/3
f 84/117/1 59/8/1 110/118/1 112/119/1
f 7/48/6 49/113/6 52/114/6 6/49/6
f 56/54/5 5/53/5 51/112/5 76/111/5
f 47/115/3 51/43/3 50/46/3 46/116/3
f 110/120/13 77/121/13 104/122/13 114/123/13
f 77/124/8 98/125/8 107/126/8 104/127/8
f 81/128/5 56/54/5 76/111/5 97/129/5
f 111/130/4 109/131/4 113/132/4 115/133/4
f 97/129/5 76/111/5 75/69/5 96/134/5
f 39/6/14 73/5/14 74/135/14 40/136/14
f 43/137/15 71/138/15 72/58/15 44/57/15
f 35/139/10 69/140/10 70/88/10 36/87/10
f 99/141/9 67/89/9 68/85/9 92/142/9
f 87/143/1 62/84/1 66/1/1 91/144/1
f 92/142/8 68/85/8 70/88/8 100/94/8
f 86/145/5 61/72/5 64/35/5 89/146/5
f 78/147/1 53/34/1 63/81/1 88/148/1
f 88/148/1 63/81/1 62/84/1 87/143/1
f 90/149/5 65/22/5 61/72/5 86/145/5
f 96/134/5 75/69/5 60/55/5 85/150/5
f 85/150/16 60/55/16 72/58/16 101/102/16
f 80/151/1 55/42/1 58/31/1 83/152/1
f 79/153/5 54/38/5 57/51/5 82/154/5
f 82/154/5 57/51/5 56/54/5 81/128/5
f 98/155/1 77/39/1 55/42/1 80/151/1
f 89/146/5 64/35/5 54/38/5 79/153/5
f 83/152/1 58/31/1 53/34/1 78/147/1
f 93/156/5 69/19/5 65/22/5 90/149/5
f 94/157/4 71/15/4 74/18/4 102/158/4
f 95/103/17 73/5/17 59/8/17 84/117/17
f 91/144/1 66/1/1 67/4/1 99/159/1
f 28/160/1 91/144/1 99/159/1 29/161/1
f 38/104/18 95/103/18 84/117/18 14/162/18
f 42/163/4 94/157/4 102/158/4 37/164/4
f 34/165/5 93/156/5 90/149/5 25/166/5
f 12/167/1 83/152/1 78/147/1 3/168/1
f 23/169/5 89/146/5 79/153/5 1/170/5
f 52/171/1 98/155/1 80/151/1 6/172/1
f 9/173/5 82/154/5 81/128/5 7/174/5
f 1/170/5 79/153/5 82/154/5 9/173/5
f 6/172/1 80/151/1 83/152/1 12/167/1
f 15/175/19 85/150/19 101/102/19 41/101/19
f 45/176/5 96/134/5 85/150/5 15/175/5
f 25/166/5 90/149/5 86/145/5 17/177/5
f 22/178/1 88/148/1 87/143/1 20/179/1
f 3/168/1 78/147/1 88/148/1 22/178/1
f 17/177/5 86/145/5 89/146/5 23/169/5
f 30/180/8 92/142/8 100/94/8 33/93/8
f 20/179/1 87/143/1 91/144/1 28/160/1
f 29/181/9 99/141/9 92/142/9 30/180/9
f 49/182/5 97/129/5 96/134/5 45/176/5
f 103/183/20 106/184/20 116/185/20 114/186/20
f 7/174/5 81/128/5 97/129/5 49/182/5
f 98/187/21 112/188/21 116/189/21 107/190/21
f 73/5/22 95/103/22 102/106/22 74/135/22
f 71/138/23 94/99/23 101/102/23 72/58/23
f 69/140/10 93/91/10 100/94/10 70/88/10
f 48/191/1 112/119/1 98/155/1 52/171/1
f 14/162/1 84/117/1 112/119/1 48/191/1
f 59/8/1 16/7/1 46/192/1 110/118/1
f 106/193/24 108/194/24 107/190/24 116/189/24
f 114/195/25 104/196/25 105/197/25 103/198/25
f 104/127/26 107/126/26 108/199/26 105/200/26
f 106/201/1 103/198/1 105/197/1 108/202/1
f 109/131/4 111/130/4 112/203/4 110/204/4
f 115/133/27 113/132/27 114/186/27 116/185/27
f 116/185/28 112/203/28 111/130/28 115/133/28
f 110/204/29 114/186/29 113/132/29 109/131/29
f 110/118/1 46/192/1 50/40/1 77/39/1
f 179/205/30 177/206/30 122/207/30 124/208/30
f 146/209/31 117/210/31 118/211/31 148/212/31
f 142/213/32 119/214/32 117/215/32 146/216/32
f 148/217/33 118/218/33 120/219/33 144/220/33
f 124/208/34 122/207/34 242/221/34 244/222/34
f 180/223/35 178/224/35 123/225/35 121/226/35
f 178/227/36 179/228/36 124/229/36 123/230/36
f 177/231/37 180/232/37 121/233/37 122/234/37
f 144/235/38 120/236/38 119/237/38 142/238/38
f 133/239/4 136/240/4 132/241/4 129/242/4
f 139/243/8 138/244/8 125/245/8 128/246/8
f 136/247/39 139/248/39 128/249/39 132/250/39
f 133/251/40 138/252/40 142/253/40 146/254/40
f 139/255/41 136/256/41 148/257/41 144/258/41
f 135/259/6 134/260/6 145/261/6 147/262/6
f 126/263/6 130/264/6 131/265/6 127/266/6
f 126/263/42 127/266/42 128/267/42 125/268/42
f 130/269/43 126/270/43 125/271/43 129/272/43
f 127/273/44 131/274/44 132/250/44 128/249/44
f 131/265/45 130/264/45 129/275/45 132/276/45
f 137/277/6 140/278/6 143/279/6 141/280/6
f 141/280/46 143/279/46 144/258/46 142/253/46
f 147/262/47 145/261/47 146/254/47 148/257/47
f 138/252/48 139/255/48 140/278/48 137/277/48
f 136/256/49 133/251/49 134/260/49 135/259/49
f 142/253/50 138/252/50 137/277/50 141/280/50
f 139/255/51 144/258/51 143/279/51 140/278/51
f 145/261/52 134/260/52 133/251/52 146/254/52
f 135/259/53 147/262/53 148/257/53 136/256/53
f 138/281/54 133/282/54 129/272/54 125/271/54
f 193/283/55 196/284/55 152/285/55 149/286/55
f 194/287/56 195/288/56 150/289/56 151/290/56
f 196/291/57 194/292/57 151/293/57 152/294/57
f 195/295/58 193/296/58 149/297/58 150/298/58
f 203/299/59 201/300/59 155/301/59 153/302/59
f 204/303/60 202/304/60 156/305/60 154/306/60
f 202/307/56 203/308/56 153/309/56 156/310/56
f 201/311/55 204/312/55 154/313/55 155/314/55
f 209/315/55 212/316/55 160/317/55 157/318/55
f 210/319/56 211/320/56 159/321/56 158/322/56
f 212/323/61 210/324/61 158/325/61 160/326/61
f 211/327/62 209/328/62 157/329/62 159/330/62
f 189/331/63 191/332/63 163/333/63 161/334/63
f 190/335/64 192/336/64 164/337/64 162/338/64
f 192/339/56 189/340/56 161/341/56 164/342/56
f 191/343/55 190/344/55 162/345/55 163/346/55
f 183/347/55 182/348/55 168/349/55 165/350/55
f 184/351/56 181/352/56 167/353/56 166/354/56
f 182/355/65 184/356/65 166/357/65 168/358/65
f 181/359/66 183/360/66 165/361/66 167/362/66
f 207/363/55 206/364/55 170/365/55 171/366/55
f 208/367/56 205/368/56 169/369/56 172/370/56
f 206/371/67 208/372/67 172/373/67 170/374/67
f 205/375/68 207/376/68 171/377/68 169/378/68
f 197/379/69 199/380/69 173/381/69 175/382/69
f 198/383/70 200/384/70 174/385/70 176/386/70
f 200/387/56 197/388/56 175/389/56 174/390/56
f 199/391/55 198/392/55 176/393/55 173/394/55
f 165/350/55 168/349/55 180/232/55 177/231/55
f 166/354/56 167/353/56 179/228/56 178/227/56
f 168/358/71 166/357/71 178/224/71 180/223/71
f 167/362/72 165/361/72 177/206/72 179/205/72
f 213/395/73 215/396/73 183/397/73 181/398/73
f 214/399/74 216/400/74 184/356/74 182/355/74
f 216/401/56 213/402/56 181/352/56 184/351/56
f 215/403/55 214/404/55 182/348/55 183/347/55
f 161/334/75 163/333/75 185/405/75 187/406/75
f 162/338/76 164/337/76 186/407/76 188/408/76
f 164/342/56 161/341/56 187/409/56 186/410/56
f 163/346/55 162/345/55 188/411/55 185/412/55
f 149/286/55 152/285/55 190/344/55 191/343/55
f 151/290/56 150/289/56 189/340/56 192/339/56
f 152/294/77 151/293/77 192/336/77 190/335/77
f 150/298/78 149/297/78 191/332/78 189/331/78
f 175/382/79 173/381/79 193/296/79 195/295/79
f 176/386/80 174/385/80 194/292/80 196/291/80
f 174/390/56 175/389/56 195/288/56 194/287/56
f 173/394/55 176/393/55 196/284/55 193/283/55
f 155/314/55 154/313/55 198/392/55 199/391/55
f 156/310/56 153/309/56 197/388/56 200/387/56
f 154/306/81 156/305/81 200/384/81 198/383/81
f 153/302/82 155/301/82 199/380/82 197/379/82
f 171/366/55 170/365/55 204/312/55 201/311/55
f 172/370/56 169/369/56 203/308/56 202/307/56
f 170/374/83 172/373/83 202/304/83 204/303/83
f 169/378/84 171/377/84 201/300/84 203/299/84
f 119/237/85 120/236/85 207/376/85 205/375/85
f 118/211/4 117/210/4 208/372/4 206/371/4
f 117/215/56 119/214/56 205/368/56 208/367/56
f 120/219/55 118/218/55 206/364/55 207/363/55
f 187/413/86 185/414/86 209/328/86 211/327/86
f 188/408/61 186/407/61 210/324/61 212/323/61
f 186/410/56 187/409/56 211/320/56 210/319/56
f 185/412/55 188/411/55 212/316/55 209/315/55
f 219/415/55 218/416/55 214/404/55 215/403/55
f 220/417/56 217/418/56 213/402/56 216/401/56
f 218/419/74 220/420/74 216/400/74 214/399/74
f 217/421/87 219/422/87 215/396/87 213/395/87
f 217/418/88 159/321/88 222/423/88 221/424/88
f 160/326/74 158/325/74 220/420/74 218/419/74
f 158/322/56 159/321/56 217/418/56 220/417/56
f 157/318/55 160/317/55 218/416/55 219/415/55
f 223/425/89 224/426/89 228/427/89 227/428/89
f 219/422/90 217/421/90 221/429/90 224/430/90
f 157/318/91 219/415/91 224/426/91 223/425/91
f 159/330/92 157/329/92 223/431/92 222/432/92
f 228/433/93 225/434/93 229/435/93 232/436/93
f 221/424/94 222/423/94 226/437/94 225/438/94
f 224/430/95 221/429/95 225/434/95 228/433/95
f 222/432/96 223/431/96 227/439/96 226/440/96
f 231/441/97 232/442/97 236/443/97 235/444/97
f 226/440/98 227/439/98 231/445/98 230/446/98
f 227/428/99 228/427/99 232/442/99 231/441/99
f 225/438/100 226/437/100 230/447/100 229/448/100
f 235/444/101 236/443/101 240/449/101 239/450/101
f 229/448/102 230/447/102 234/451/102 233/452/102
f 232/453/103 229/454/103 233/455/103 236/456/103
f 230/457/104 231/458/104 235/459/104 234/460/104
f 275/461/56 273/462/56 246/463/56 245/464/56
f 233/452/105 234/451/105 238/465/105 237/466/105
f 236/456/106 233/455/106 237/467/106 240/468/106
f 234/460/107 235/459/107 239/469/107 238/470/107
f 244/222/108 242/221/108 250/471/108 252/472/108
f 122/234/109 121/233/109 241/473/109 242/474/109
f 123/230/110 124/229/110 244/475/110 243/476/110
f 121/226/4 123/225/4 243/477/4 241/478/4
f 246/479/111 247/480/111 248/481/111 245/482/111
f 276/483/112 275/484/112 245/485/112 248/486/112
f 273/487/113 274/488/113 247/480/113 246/479/113
f 274/489/55 276/490/55 248/491/55 247/492/55
f 252/472/8 250/471/8 254/493/8 256/494/8
f 242/474/114 241/473/114 249/495/114 250/496/114
f 243/476/115 244/475/115 252/497/115 251/498/115
f 241/478/4 243/477/4 251/499/4 249/500/4
f 254/501/116 253/502/116 257/503/116 258/504/116
f 250/496/117 249/495/117 253/505/117 254/506/117
f 251/498/118 252/497/118 256/507/118 255/508/118
f 249/500/4 251/499/4 255/509/4 253/510/4
f 259/511/119 260/512/119 258/504/119 257/503/119
f 255/513/120 256/514/120 260/512/120 259/511/120
f 253/510/4 255/509/4 259/515/4 257/516/4
f 256/494/8 254/493/8 258/517/8 260/518/8
f 239/450/55 240/449/55 263/519/55 264/520/55
f 238/521/113 239/522/113 264/523/113 261/524/113
f 240/525/112 237/526/112 262/527/112 263/528/112
f 237/466/56 238/465/56 261/529/56 262/530/56
f 272/531/121 270/532/121 268/533/121 266/534/121
f 271/535/113 272/536/113 266/537/113 265/538/113
f 269/539/122 267/540/122 277/541/122 279/542/122
f 269/539/123 271/543/123 265/544/123 267/540/123
f 262/530/124 261/529/124 271/543/124 269/539/124
f 263/528/125 262/527/125 269/545/125 270/546/125
f 261/524/113 264/523/113 272/536/113 271/535/113
f 264/520/126 263/519/126 270/532/126 272/531/126
f 266/534/127 268/533/127 276/490/127 274/489/127
f 265/538/113 266/537/113 274/488/113 273/487/113
f 268/547/128 267/548/128 275/484/128 276/483/128
f 267/540/129 265/544/129 273/462/129 275/461/129
f 278/549/55 280/550/55 284/551/55 282/552/55
f 267/553/130 268/554/130 278/555/130 277/556/130
f 270/557/131 269/558/131 279/559/131 280/560/131
f 268/533/132 270/532/132 280/550/132 278/549/132
f 282/552/133 284/551/133 291/561/133 287/562/133
f 277/563/134 278/564/134 282/565/134 281/566/134
f 280/567/135 279/568/135 283/569/135 284/570/135
f 279/542/56 277/541/56 281/571/56 283/572/56
f 283/572/136 281/571/136 286/573/136 290/574/136
f 281/575/137 282/576/137 287/577/137 286/578/137
f 284/579/138 283/580/138 290/581/138 291/582/138
f 286/583/139 287/584/139 288/585/139 285/586/139
f 285/587/140 289/588/140 290/574/140 286/573/140
f 287/562/141 291/561/141 292/589/141 288/590/141
f 289/591/142 292/592/142 291/582/142 290/581/142
f 292/593/143 289/594/143 285/586/143 288/585/143
f 495/870/263 432/871/263 434/872/263 496/873/263
f 496/873/264 434/872/264 436/874/264 497/875/264
f 497/875/265 436/874/265 438/876/265 498/877/265
f 498/877/266 438/876/266 440/878/266 499/879/266
f 499/879/267 440/878/267 442/880/267 500/881/267
f 500/882/268 442/883/268 444/884/268 501/885/268
f 501/885/269 444/884/269 446/886/269 502/887/269
f 502/887/270 446/886/270 448/888/270 503/889/270
f 503/889/271 448/888/271 450/890/271 504/891/271
f 504/891/272 450/890/272 452/892/272 505/893/272
f 505/893/273 452/892/273 454/894/273 506/895/273
f 506/896/274 454/897/274 456/898/274 507/899/274
f 507/899/275 456/898/275 458/900/275 508/901/275
f 508/901/276 458/900/276 460/902/276 509/903/276
f 509/903/277 460/902/277 462/904/277 510/905/277
f 510/905/278 462/904/278 464/906/278 511/907/278
f 511/907/279 464/906/279 466/908/279 512/909/279
f 512/909/280 466/908/280 468/910/280 513/911/280
f 513/911/281 468/910/281 470/912/281 514/913/281
f 514/913/282 470/912/282 472/914/282 515/915/282
f 515/915/283 472/914/283 474/916/283 516/917/283
f 516/918/284 474/919/284 476/920/284 517/921/284
f 517/921/285 476/920/285 478/922/285 518/923/285
f 518/923/286 478/922/286 480/924/286 519/925/286
f 519/925/287 480/924/287 482/926/287 520/927/287
f 520/927/288 482/926/288 484/928/288 521/929/288
f 521/929/289 484/928/289 486/930/289 522/931/289
f 522/932/290 486/933/290 488/934/290 523/935/290
f 523/935/291 488/934/291 490/936/291 524/937/291
f 524/937/292 490/936/292 492/938/292 525/939/292
f 434/940/4 432/941/4 494/942/4 492/943/4 490/944/4 488/945/4 486/946/4 484/947/4 482/948/4 480/949/4 478/950/4 476/951/4 474/952/4 472/953/4 470/954/4 468/955/4 466/956/4 464/957/4 462/958/4 460/959/4 458/960/4 456/961/4 454/962/4 452/963/4 450/964/4 448/965/4 446/966/4 444/967/4 442/968/4 440/969/4 438/970/4 436/971/4
f 525/939/293 492/938/293 494/972/293 526/973/293
f 526/973/294 494/972/294 432/871/294 495/870/294
f 443/974/285 445/975/285 534/976/285 533/977/285
f 433/978/8 431/979/8 495/980/8 496/981/8
f 435/982/8 433/978/8 496/981/8 497/983/8
f 437/984/8 435/982/8 497/983/8 498/985/8
f 439/986/8 437/984/8 498/985/8 499/987/8
f 441/988/8 439/986/8 499/987/8 500/989/8
f 443/990/8 441/988/8 500/989/8 501/991/8
f 445/992/8 443/990/8 501/991/8 502/993/8
f 447/994/8 445/992/8 502/993/8 503/995/8
f 449/996/8 447/994/8 503/995/8 504/997/8
f 451/998/8 449/996/8 504/997/8 505/999/8
f 453/1000/8 451/998/8 505/999/8 506/1001/8
f 455/1002/8 453/1000/8 506/1001/8 507/1003/8
f 457/1004/8 455/1002/8 507/1003/8 508/1005/8
f 459/1006/8 457/1004/8 508/1005/8 509/1007/8
f 461/1008/8 459/1006/8 509/1007/8 510/1009/8
f 463/1010/8 461/1008/8 510/1009/8 511/1011/8
f 465/1012/8 463/1010/8 511/1011/8 512/1013/8
f 467/1014/8 465/1012/8 512/1013/8 513/1015/8
f 469/1016/8 467/1014/8 513/1015/8 514/1017/8
f 471/1018/8 469/1016/8 514/1017/8 515/1019/8
f 473/1020/8 471/1018/8 515/1019/8 516/1021/8
f 475/1022/8 473/1020/8 516/1021/8 517/1023/8
f 477/1024/8 475/1022/8 517/1023/8 518/1025/8
f 479/1026/8 477/1024/8 518/1025/8 519/1027/8
f 481/1028/8 479/1026/8 519/1027/8 520/1029/8
f 483/1030/8 481/1028/8 520/1029/8 521/1031/8
f 485/1032/8 483/1030/8 521/1031/8 522/1033/8
f 487/1034/8 485/1032/8 522/1033/8 523/1035/8
f 489/1036/8 487/1034/8 523/1035/8 524/1037/8
f 491/1038/8 489/1036/8 524/1037/8 525/1039/8
f 493/1040/8 491/1038/8 525/1039/8 526/1041/8
f 431/979/8 493/1040/8 526/1041/8 495/980/8
f 527/1042/8 528/1043/8 529/1044/8 530/1045/8 531/1046/8 532/1047/8 533/1048/8 534/1049/8 535/1050/8 536/1051/8 537/1052/8 538/1053/8 539/1054/8 540/1055/8 541/1056/8 542/1057/8 543/1058/8 544/1059/8 545/1060/8 546/1061/8 547/1062/8 548/1063/8 549/1064/8 550/1065/8 551/1066/8 552/1067/8 553/1068/8 554/1069/8 555/1070/8 556/1071/8 557/1072/8 558/1073/8
f 471/1074/267 473/1075/267 548/1076/267 547/1077/267
f 445/975/286 447/1078/286 535/1079/286 534/976/286
f 473/1080/268 475/1081/268 549/1082/268 548/1083/268
f 447/1078/287 449/1084/287 536/1085/287 535/1079/287
f 475/1081/269 477/1086/269 550/1087/269 549/1082/269
f 449/1084/288 451/1088/288 537/1089/288 536/1085/288
f 477/1086/270 479/1090/270 551/1091/270 550/1087/270
f 451/1088/289 453/1092/289 538/1093/289 537/1089/289
f 479/1090/271 481/1094/271 552/1095/271 551/1091/271
f 453/1096/290 455/1097/290 539/1098/290 538/1099/290
f 481/1094/272 483/1100/272 553/1101/272 552/1095/272
f 455/1097/291 457/1102/291 540/1103/291 539/1098/291
f 483/1100/273 485/1104/273 554/1105/273 553/1101/273
f 457/1102/292 459/1106/292 541/1107/292 540/1103/292
f 431/1108/279 433/1109/279 528/1110/279 527/1111/279
f 485/1112/274 487/1113/274 555/1114/274 554/1115/274
f 459/1106/293 461/1116/293 542/1117/293 541/1107/293
f 433/1109/280 435/1118/280 529/1119/280 528/1110/280
f 487/1113/275 489/1120/275 556/1121/275 555/1114/275
f 461/1116/294 463/1122/294 543/1123/294 542/1117/294
f 435/1118/281 437/1124/281 530/1125/281 529/1119/281
f 489/1120/276 491/1126/276 557/1127/276 556/1121/276
f 463/1122/263 465/1128/263 544/1129/263 543/1123/263
f 437/1124/282 439/1130/282 531/1131/282 530/1125/282
f 491/1126/277 493/1132/277 558/1133/277 557/1127/277
f 465/1128/264 467/1134/264 545/1135/264 544/1129/264
f 439/1130/283 441/1136/283 532/1137/283 531/1131/283
f 493/1132/278 431/1108/278 527/1111/278 558/1133/278
f 467/1134/265 469/1138/265 546/1139/265 545/1135/265
f 441/1140/284 443/974/284 533/977/284 532/1141/284
f 469/1138/266 471/1074/266 547/1077/266 546/1139/266
usemtl Material.002
f 355/595/144 353/596/144 298/597/144 300/598/144
f 322/599/145 293/600/145 294/601/145 324/602/145
f 318/603/146 295/604/146 293/605/146 322/606/146
f 324/607/147 294/608/147 296/609/147 320/610/147
f 300/598/148 298/597/148 398/611/148 400/612/148
f 356/613/149 354/614/149 299/615/149 297/616/149
f 354/617/150 355/618/150 300/619/150 299/620/150
f 353/621/151 356/622/151 297/623/151 298/624/151
f 320/625/152 296/626/152 295/627/152 318/628/152
f 309/629/4 312/268/4 308/630/4 305/631/4
f 315/632/8 314/633/8 301/634/8 304/635/8
f 312/636/153 315/637/153 304/638/153 308/639/153
f 309/640/154 314/641/154 318/642/154 322/643/154
f 315/644/155 312/645/155 324/646/155 320/647/155
f 311/648/6 310/649/6 321/650/6 323/651/6
f 302/652/6 306/653/6 307/654/6 303/655/6
f 302/656/156 303/657/156 304/635/156 301/634/156
f 306/658/157 302/659/157 301/660/157 305/661/157
f 303/662/158 307/663/158 308/639/158 304/638/158
f 307/654/159 306/653/159 305/664/159 308/665/159
f 313/666/6 316/667/6 319/668/6 317/669/6
f 317/669/160 319/668/160 320/647/160 318/642/160
f 323/651/161 321/650/161 322/643/161 324/646/161
f 314/641/162 315/644/162 316/667/162 313/666/162
f 312/645/163 309/640/163 310/649/163 311/648/163
f 318/642/164 314/641/164 313/666/164 317/669/164
f 315/644/165 320/647/165 319/668/165 316/667/165
f 321/650/166 310/649/166 309/640/166 322/643/166
f 311/648/167 323/651/167 324/646/167 312/645/167
f 314/670/168 309/671/168 305/661/168 301/660/168
f 369/672/169 372/673/169 328/674/169 325/675/169
f 370/676/170 371/677/170 326/678/170 327/679/170
f 372/680/171 370/681/171 327/682/171 328/683/171
f 371/684/172 369/685/172 325/686/172 326/687/172
f 379/688/173 377/689/173 331/690/173 329/691/173
f 380/692/174 378/693/174 332/694/174 330/695/174
f 378/696/175 379/697/175 329/698/175 332/699/175
f 377/700/176 380/701/176 330/702/176 331/703/176
f 385/704/177 388/705/177 336/706/177 333/707/177
f 386/708/178 387/709/178 335/710/178 334/711/178
f 388/712/179 386/713/179 334/714/179 336/715/179
f 387/716/180 385/717/180 333/718/180 335/719/180
f 365/720/181 367/721/181 339/722/181 337/723/181
f 366/724/182 368/725/182 340/726/182 338/727/182
f 368/728/183 365/729/183 337/730/183 340/731/183
f 367/732/184 366/733/184 338/734/184 339/735/184
f 359/736/185 358/737/185 344/738/185 341/739/185
f 360/740/186 357/741/186 343/742/186 342/743/186
f 358/744/187 360/745/187 342/746/187 344/747/187
f 357/748/188 359/749/188 341/750/188 343/751/188
f 383/752/189 382/753/189 346/754/189 347/755/189
f 384/756/190 381/757/190 345/758/190 348/759/190
f 382/760/191 384/761/191 348/762/191 346/763/191
f 381/764/192 383/765/192 347/766/192 345/767/192
f 373/768/193 375/769/193 349/770/193 351/771/193
f 374/772/194 376/773/194 350/774/194 352/775/194
f 376/776/195 373/777/195 351/778/195 350/779/195
f 375/780/196 374/781/196 352/782/196 349/783/196
f 341/739/197 344/738/197 356/622/197 353/621/197
f 342/743/198 343/742/198 355/618/198 354/617/198
f 344/747/199 342/746/199 354/614/199 356/613/199
f 343/751/200 341/750/200 353/596/200 355/595/200
f 389/784/201 391/785/201 359/749/201 357/748/201
f 390/786/70 392/787/70 360/745/70 358/744/70
f 392/788/202 389/789/202 357/741/202 360/740/202
f 391/790/203 390/791/203 358/737/203 359/736/203
f 337/723/204 339/722/204 361/792/204 363/793/204
f 338/727/205 340/726/205 362/794/205 364/795/205
f 340/731/206 337/730/206 363/796/206 362/797/206
f 339/735/207 338/734/207 364/798/207 361/799/207
f 325/675/208 328/674/208 366/733/208 367/732/208
f 327/679/209 326/678/209 365/729/209 368/728/209
f 328/683/210 327/682/210 368/725/210 366/724/210
f 326/687/211 325/686/211 367/721/211 365/720/211
f 351/771/212 349/770/212 369/685/212 371/684/212
f 352/775/213 350/774/213 370/681/213 372/680/213
f 350/779/214 351/778/214 371/677/214 370/676/214
f 349/783/215 352/782/215 372/673/215 369/672/215
f 331/703/216 330/702/216 374/781/216 375/780/216
f 332/699/217 329/698/217 373/777/217 376/776/217
f 330/695/218 332/694/218 376/773/218 374/772/218
f 329/691/219 331/690/219 375/769/219 373/768/219
f 347/755/220 346/754/220 380/701/220 377/700/220
f 348/759/221 345/758/221 379/697/221 378/696/221
f 346/763/222 348/762/222 378/693/222 380/692/222
f 345/767/223 347/766/223 377/689/223 379/688/223
f 295/627/224 296/626/224 383/765/224 381/764/224
f 294/601/4 293/600/4 384/761/4 382/760/4
f 293/605/225 295/604/225 381/757/225 384/756/225
f 296/609/226 294/608/226 382/753/226 383/752/226
f 363/793/227 361/792/227 385/717/227 387/716/227
f 364/795/228 362/794/228 386/713/228 388/712/228
f 362/797/229 363/796/229 387/709/229 386/708/229
f 361/799/230 364/798/230 388/705/230 385/704/230
f 395/800/55 394/801/55 390/791/55 391/790/55
f 396/802/56 393/803/56 389/789/56 392/788/56
f 394/804/231 396/805/231 392/787/231 390/786/231
f 393/806/232 395/807/232 391/785/232 389/784/232
f 336/715/233 334/714/233 396/805/233 394/804/233
f 334/711/56 335/710/56 393/803/56 396/802/56
f 333/707/55 336/706/55 394/801/55 395/800/55
f 393/806/234 335/719/234 333/718/234
f 400/612/235 398/611/235 406/808/235 408/809/235
f 298/624/236 297/623/236 397/810/236 398/811/236
f 299/620/237 300/619/237 400/812/237 399/813/237
f 297/616/238 299/615/238 399/814/238 397/815/238
f 402/816/239 403/817/239 404/818/239 401/819/239
f 418/820/112 417/821/112 401/822/112 404/823/112
f 408/809/240 406/808/240 410/824/240 412/825/240
f 398/811/241 397/810/241 405/826/241 406/827/241
f 399/813/242 400/812/242 408/828/242 407/829/242
f 397/815/243 399/814/243 407/830/243 405/831/243
f 410/832/244 409/833/244 413/834/244 414/835/244
f 406/827/245 405/826/245 409/833/245 410/832/245
f 407/829/246 408/828/246 412/836/246 411/837/246
f 405/831/247 407/830/247 411/838/247 409/839/247
f 416/840/248 414/841/248 420/842/248 422/843/248
f 411/837/249 412/836/249 416/844/249 415/845/249
f 409/839/250 411/838/250 415/846/250 413/847/250
f 412/825/251 410/824/251 414/841/251 416/840/251
f 393/806/234 333/718/234 395/807/234
f 413/847/252 415/846/252 421/848/252 419/849/252
f 415/845/253 416/844/253 422/850/253 421/851/253
f 426/852/254 430/853/254 422/843/254 420/842/254
f 427/854/3 429/855/3 425/856/3 423/857/3
f 424/858/255 426/859/255 420/860/255 419/861/255
f 430/862/256 428/863/256 421/851/256 422/850/256
f 414/835/257 413/834/257 419/861/257 420/860/257
f 423/857/258 425/856/258 426/864/258 424/865/258
f 427/854/259 423/857/259 424/865/259 428/866/259
f 425/856/260 429/855/260 430/867/260 426/864/260
f 429/855/261 427/854/261 428/866/261 430/867/261
f 428/868/262 424/869/262 419/849/262 421/848/262
o Cube.003
v -14.080044 7.885453 1.298727
v -14.080044 7.885453 -1.298727
v -14.080044 9.423385 1.298727
v -14.080044 9.423385 -1.298727
v 1.151067 9.903611 0.671917
v 1.151067 7.885453 0.976382
v -0.715708 7.885453 1.299647
v -0.715708 7.885453 -1.299647
v 1.151067 7.885453 -0.976382
v -0.715708 9.423385 1.299647
v 1.151067 9.670736 0.976382
v 1.151067 9.670736 -0.976382
v -0.715708 9.423385 -1.299647
v -8.844350 9.903611 0.671229
v 1.151067 9.903611 -0.671917
v -0.752821 9.903611 0.671786
v 0.199123 9.903611 0.671851
v 1.151067 9.903611 0.020997
v 0.199123 9.903611 0.335926
v -0.752821 9.903611 0.000000
v -0.752821 9.903611 -0.335893
v 0.199123 9.903611 -0.335926
v 0.089552 10.083966 0.655039
v -0.752821 10.045404 0.000000
v 0.199123 10.045404 0.335926
v -0.752821 10.045404 0.671786
v -0.643250 10.083966 0.352702
v -0.752821 10.045404 -0.335893
v 0.199123 10.045404 -0.335926
v -13.128099 9.903611 -0.167734
v -14.080044 9.903611 0.670869
v 0.199123 9.903611 0.000000
v -14.080044 9.903611 -0.670869
v 0.199123 10.045404 -0.000000
v -0.289949 10.103265 -0.260261
v -0.263750 10.103265 -0.075648
v -13.604073 9.903611 -0.167725
v -0.752821 9.903611 0.335893
v -13.445415 9.903611 0.167728
v -13.524743 9.996042 -0.167727
v -13.207428 9.996042 0.167732
vn -0.0001 -0.0000 1.0000
vn -0.0000 1.0000 -0.0000
vn -0.0001 -0.0000 -1.0000
vn -0.0000 0.7943 0.6075
vn 0.0434 0.9935 -0.1052
vn 0.3425 -0.8819 0.3240
vn -0.0000 -0.0000 -1.0000
vn -1.0000 -0.0000 -0.0000
vn -0.0000 0.7943 -0.6075
vn 1.0000 -0.0000 -0.0000
vn 0.1706 -0.0000 0.9853
vn 0.1706 -0.0000 -0.9853
vn -0.9356 0.3254 -0.1374
vn -0.0000 -1.0000 -0.0000
vn -0.0081 0.0549 -0.9985
vn 0.9356 0.3254 0.1373
vn -0.0000 -0.0000 1.0000
vn 0.0081 0.0549 0.9985
vn -0.1207 0.9927 0.0061
vn -0.0434 0.9935 0.1052
vn 0.1207 0.9927 -0.0061
vn -0.4741 0.8137 0.3363
vn 0.2219 0.9522 -0.2099
vt 1.000000 0.799551
vt 1.000000 0.875256
vt 0.934251 0.875256
vt 0.934251 0.799551
vt 0.510656 0.921155
vt 0.521621 0.875319
vt 0.521639 0.921155
vt 0.477735 0.845660
vt 0.488689 0.921155
vt 0.477701 0.931940
vt 0.233837 0.979376
vt 0.233837 0.903671
vt 0.299587 0.903671
vt 0.299587 0.979376
vt 0.054307 0.710430
vt 0.056929 0.708055
vt 0.059699 0.710430
vt 0.081299 0.689039
vt 0.082269 0.699146
vt 0.077845 0.698269
vt 0.505157 0.849255
vt 0.521609 0.845660
vt 0.086220 0.699131
vt 0.082269 0.688161
vt 0.086220 0.688161
vt 0.494188 0.848356
vt 0.494188 0.851053
vt 0.230900 0.647083
vt 0.231349 0.643131
vt 0.233596 0.647083
vt 0.712100 0.866191
vt 0.712100 0.931940
vt 0.627165 0.931940
vt 0.627165 0.866191
vt 0.647696 0.845660
vt 0.691570 0.845660
vt 0.542140 0.845660
vt 0.542170 0.921365
vt 0.531599 0.931940
vt 0.521644 0.931940
vt 0.521641 0.926547
vt 0.467745 0.931940
vt 0.457175 0.921365
vt 0.457205 0.845660
vt 0.987530 0.895784
vt 0.987530 0.972108
vt 0.923676 0.972108
vt 0.923676 0.895784
vt 0.933632 0.885828
vt 0.956290 0.885828
vt 0.977574 0.885828
vt 1.000000 0.885828
vt 0.923676 0.885828
vt 0.310161 0.989950
vt 0.233837 0.989950
vt 0.076876 0.677178
vt 0.082938 0.677178
vt 0.082938 0.688161
vt 0.076876 0.688161
vt 0.616595 0.845660
vt 0.627165 0.856235
vt 0.627135 0.931940
vt 0.542200 0.931940
vt 0.542170 0.856235
vt 0.552741 0.845660
vt 0.499672 0.921155
vt 0.232399 0.710282
vt 0.232399 0.716344
vt 0.227006 0.716344
vt 0.227975 0.709404
vt 0.500359 0.931940
vt 0.510657 0.926547
vt 0.227006 0.685939
vt 0.233068 0.685939
vt 0.233068 0.696923
vt 0.227006 0.696923
vt 0.488688 0.926547
vt 0.059699 0.718867
vt 0.059699 0.724929
vt 0.054307 0.724929
vt 0.054307 0.718867
vt 0.227006 0.674955
vt 0.233068 0.674955
vt 0.059699 0.716492
vt 0.054307 0.716492
vt 0.208082 0.720943
vt 0.208082 0.727005
vt 0.202690 0.727005
vt 0.203659 0.720065
vt 0.227006 0.663970
vt 0.233068 0.663970
vt 0.233068 0.674955
vt 0.227006 0.674955
vt 0.229776 0.699298
vt 0.229628 0.705532
vt 0.227006 0.707906
vt 0.232399 0.696923
vt 0.232399 0.707908
vt 0.056928 0.716492
vt 0.219631 0.700469
vt 0.223583 0.700469
vt 0.223583 0.711438
vt 0.219631 0.711438
vt 0.499672 0.926547
vt 0.082269 0.699131
s 0
usemtl Material.001
f 559/1142/295 565/1143/295 568/1144/295 561/1145/295
f 596/1146/296 572/1147/296 574/1148/296
f 591/1149/296 579/1150/296 573/1151/296
f 566/1152/297 560/1153/297 562/1154/297 571/1155/297
f 592/1156/298 594/1157/298 582/1158/298
f 581/1159/299 583/1160/299 585/1161/299
f 597/1162/296 589/1163/296 572/1147/296
f 588/1164/300 599/1165/300 597/1166/300
f 591/1149/296 595/1167/296 588/1168/296
f 595/1167/296 589/1163/296 597/1162/296
f 595/1169/301 598/1170/301 588/1171/301
f 562/1172/302 560/1173/302 559/1174/302 561/1175/302 589/1176/302 591/1177/302
f 574/1148/298 572/1147/298 589/1163/298 561/1178/298 568/1179/298 569/1180/298 563/1181/298 575/1182/298
f 591/1149/303 573/1151/303 570/1183/303 571/1184/303 562/1185/303
f 569/1186/304 564/1187/304 567/1188/304 570/1189/304 573/1190/304 576/1191/304 563/1192/304
f 568/1144/305 565/1143/305 564/1193/305 569/1194/305
f 571/1155/306 570/1195/306 567/1196/306 566/1152/306
f 585/1197/307 596/1198/307 574/1199/307 584/1200/307
f 564/1201/308 565/1202/308 559/1203/308 560/1204/308 566/1205/308 567/1206/308
f 596/1146/296 578/1207/296 572/1147/296
f 583/1208/309 577/1209/309 596/1210/309 585/1211/309
f 575/1182/296 563/1181/296 576/1212/296 577/1213/296
f 591/1149/296 589/1163/296 595/1167/296
f 586/1214/302 579/1215/302 578/1216/302 582/1217/302
f 576/1212/296 596/1146/296 577/1213/296
f 573/1151/296 580/1218/296 576/1212/296
f 591/1149/296 578/1207/296 579/1150/296
f 573/1151/296 579/1150/296 580/1218/296
f 587/1219/301 580/1220/301 579/1221/301 586/1222/301
f 581/1223/310 575/1224/310 577/1215/310 583/1214/310
f 582/1158/311 578/1225/311 590/1226/311 592/1156/311
f 584/1227/312 574/1228/312 575/1229/312 581/1230/312
f 592/1231/304 590/1232/304 580/1233/304 587/1234/304
f 594/1235/313 593/1236/313 586/1237/313 582/1217/313
f 591/1149/296 588/1168/296 578/1207/296
f 584/1200/314 581/1159/314 585/1161/314
f 592/1238/315 587/1239/315 593/1236/315 594/1235/315
f 593/1240/303 587/1219/303 586/1222/303
f 578/1207/296 588/1168/296 572/1147/296
f 588/1168/296 597/1162/296 572/1147/296
f 598/1241/316 595/1242/316 597/1243/316 599/1244/316
f 580/1218/296 590/1245/296 576/1212/296
f 590/1245/296 578/1207/296 596/1146/296
f 576/1212/296 590/1245/296 596/1146/296
f 588/1164/317 598/1246/317 599/1165/317
